<svg xmlns="http://www.w3.org/2000/svg" xmlns:xlink="http://www.w3.org/1999/xlink" width="1702" height="1021" viewBox="0 0 1702 1021">
  <defs>
    <clipPath id="clip-path">
      <rect id="Rectangle_1350" data-name="Rectangle 1350" width="1702" height="1021" transform="translate(0)" fill="none"/>
    </clipPath>
    <clipPath id="clip-path-22">
      <path id="Path_141" data-name="Path 141" d="M806.744,557.266l37.175,29.179s28.826-2.284,53.31-7.968l0-.019c17.618-4.077,33-9.927,33.845-17.94,1.287-12.186-11.737-15.523-27.215-15.049-2.9.066-5.859.288-8.853.6-24.774,2.654-56.26-11.03-56.26-11.03Z" transform="translate(-806.744 -535.042)" fill="none"/>
    </clipPath>
    <clipPath id="clip-path-24">
      <path id="Path_146" data-name="Path 146" d="M830.035,563.776c-2.313-1.975-3.273-4.661-2.867-6.118a1.772,1.772,0,0,1,1.612-1.273h0a7.666,7.666,0,0,1,1.226-.094c4.092,0,9.631,2.77,10.453,5.469.369,1.214-.487,2.306-2.543,3.251a7.248,7.248,0,0,1-3.025.689,7.594,7.594,0,0,1-4.858-1.925m.007-9.609a9.806,9.806,0,0,0-1.6.124,3.851,3.851,0,0,0-3.316,2.793c-.693,2.475.795,5.968,3.532,8.309a9.551,9.551,0,0,0,6.232,2.426,9.366,9.366,0,0,0,3.913-.88c4.167-1.908,4.1-4.451,3.692-5.8-1.1-3.6-7.4-6.976-12.448-6.976Z" transform="translate(-824.955 -554.167)" fill="none"/>
    </clipPath>
    <clipPath id="clip-path-25">
      <path id="Path_145" data-name="Path 145" d="M844.223,548.492c-5.376.877.531,11.871,7.818,8.532s-2.443-9.408-7.818-8.532" transform="translate(-842.141 -548.407)" fill="none"/>
    </clipPath>
    <clipPath id="clip-path-27">
      <path id="Path_150" data-name="Path 150" d="M869.624,542.808c6.531.727,11.226,2.533,13.819,5.326a9.887,9.887,0,0,1,2.422,8.234c-.012.116-.029.233-.049.352q1.162-.483,2.23-.987A11.811,11.811,0,0,0,885,546.69c-2.856-3.081-7.651-5.052-14.307-5.9-.368.628-.727,1.3-1.067,2.014" transform="translate(-869.624 -540.794)" fill="none"/>
    </clipPath>
    <clipPath id="clip-path-29">
      <path id="Path_165" data-name="Path 165" d="M757.863,538.859c-2.945-.626-5.869-1.159-8.741-1.527-15.344-2.1-28.647-.146-28.647,12.106,0,8.058,14.683,15.492,31.775,21.4v.019c23.753,8.223,52.178,13.523,52.178,13.523l40.035-25.115L814.971,533.8s-32.749,10.3-57.108,5.059" transform="translate(-720.475 -533.8)" fill="none"/>
    </clipPath>
  </defs>
  <g id="Group_158" data-name="Group 158" transform="translate(-0.202)">
    <g id="Group_91" data-name="Group 91" transform="translate(0.202)">
      <g id="Group_90" data-name="Group 90" clip-path="url(#clip-path)">
        <path id="Path_45" data-name="Path 45" d="M734,190.758a32.792,32.792,0,1,0,32.792,32.792A32.828,32.828,0,0,0,734,190.758m0,67.432a34.639,34.639,0,1,1,34.64-34.64A34.679,34.679,0,0,1,734,258.19m79.676-20.134h0ZM720.344,302.3h27.319l1.8-20.888a.923.923,0,0,1,.671-.81,59.147,59.147,0,0,0,12.825-5.29.925.925,0,0,1,1.047.1l16.025,13.483,19.318-19.317-13.487-16.028a.924.924,0,0,1-.1-1.047,59.026,59.026,0,0,0,5.292-12.821.922.922,0,0,1,.81-.671l20.89-1.8V209.891l-20.89-1.8a.923.923,0,0,1-.81-.669,59.006,59.006,0,0,0-5.292-12.823.924.924,0,0,1,.1-1.047l13.487-16.026L780.03,158.206,764,171.691a.925.925,0,0,1-1.047.1,58.963,58.963,0,0,0-12.823-5.291.923.923,0,0,1-.671-.81l-1.8-20.89H720.344l-1.8,20.89a.924.924,0,0,1-.671.81,58.9,58.9,0,0,0-12.823,5.291.93.93,0,0,1-1.047-.1l-16.026-13.485L668.66,177.525l13.485,16.026a.923.923,0,0,1,.1,1.047,58.934,58.934,0,0,0-5.29,12.823.923.923,0,0,1-.81.669l-20.888,1.8v27.317l20.888,1.8a.923.923,0,0,1,.81.671,59,59,0,0,0,5.29,12.823.924.924,0,0,1-.1,1.047L668.66,269.576l19.319,19.317L704,275.41a.927.927,0,0,1,1.047-.1,59.1,59.1,0,0,0,12.823,5.29.924.924,0,0,1,.671.81Zm28.167,1.849H719.5a.925.925,0,0,1-.921-.844l-1.818-21.1a60.84,60.84,0,0,1-12.05-4.971l-16.19,13.621a.926.926,0,0,1-1.248-.055l-20.517-20.517a.924.924,0,0,1-.054-1.248l13.623-16.188a60.825,60.825,0,0,1-4.971-12.05l-21.1-1.82a.924.924,0,0,1-.844-.921V209.043a.924.924,0,0,1,.844-.921l21.1-1.82a60.768,60.768,0,0,1,4.971-12.048L666.7,178.064a.924.924,0,0,1,.054-1.248L687.27,156.3a.925.925,0,0,1,1.248-.054l16.19,13.623a60.843,60.843,0,0,1,12.05-4.971l1.818-21.1a.925.925,0,0,1,.921-.844h29.014a.925.925,0,0,1,.921.844l1.818,21.1a60.825,60.825,0,0,1,12.048,4.971l16.19-13.623a.93.93,0,0,1,1.249.054l20.515,20.517a.921.921,0,0,1,.055,1.248l-13.621,16.19a60.961,60.961,0,0,1,4.971,12.048l21.1,1.82a.925.925,0,0,1,.846.921v29.013a.925.925,0,0,1-.846.921l-21.1,1.82a60.918,60.918,0,0,1-4.971,12.048l13.621,16.19a.921.921,0,0,1-.055,1.248L780.738,290.8a.93.93,0,0,1-1.249.055L763.3,277.233a61.088,61.088,0,0,1-12.05,4.971l-1.818,21.1a.925.925,0,0,1-.921.844" transform="translate(458.613 100.384)" fill="#263338"/>
        <path id="Path_46" data-name="Path 46" d="M924.451,362.25A15.245,15.245,0,1,0,939.7,377.5a15.262,15.262,0,0,0-15.245-15.245m0,32.339A17.094,17.094,0,1,1,941.545,377.5a17.112,17.112,0,0,1-17.094,17.094m38.21-10.137h0Zm-44.319,30.327h12.22l.824-9.577a.924.924,0,0,1,.671-.81A27.91,27.91,0,0,0,938.1,401.9a.928.928,0,0,1,1.047.1l7.347,6.182,8.641-8.641-6.184-7.349a.926.926,0,0,1-.1-1.049,27.637,27.637,0,0,0,2.492-6.043.927.927,0,0,1,.81-.669l9.578-.827V371.386l-9.578-.826a.929.929,0,0,1-.81-.671,27.766,27.766,0,0,0-2.494-6.043.93.93,0,0,1,.1-1.049l6.184-7.347-8.641-8.642-7.347,6.184a.924.924,0,0,1-1.047.1,27.853,27.853,0,0,0-6.046-2.494.924.924,0,0,1-.671-.81l-.824-9.578h-12.22l-.824,9.578a.92.92,0,0,1-.671.809,27.954,27.954,0,0,0-6.046,2.5.93.93,0,0,1-1.047-.1l-7.347-6.184-8.641,8.642,6.184,7.347a.927.927,0,0,1,.1,1.049,27.711,27.711,0,0,0-2.492,6.043.929.929,0,0,1-.81.671l-9.58.826V383.6l9.58.827a.927.927,0,0,1,.81.669,27.643,27.643,0,0,0,2.492,6.043.926.926,0,0,1-.1,1.049l-6.184,7.349,8.641,8.641L909.755,402a.931.931,0,0,1,1.047-.1,27.91,27.91,0,0,0,6.046,2.494.924.924,0,0,1,.671.81Zm13.068,1.849H917.495a.924.924,0,0,1-.921-.844l-.843-9.791a30.024,30.024,0,0,1-5.268-2.174l-7.514,6.32a.923.923,0,0,1-1.249-.054l-9.839-9.837a.927.927,0,0,1-.055-1.249l6.324-7.514a29.714,29.714,0,0,1-2.174-5.267l-9.793-.844a.924.924,0,0,1-.844-.921V370.538a.923.923,0,0,1,.844-.921l9.793-.844a29.608,29.608,0,0,1,2.174-5.267l-6.324-7.514a.927.927,0,0,1,.055-1.249L901.7,344.9a.923.923,0,0,1,1.249-.054l7.514,6.322A29.751,29.751,0,0,1,915.731,349l.843-9.793a.924.924,0,0,1,.921-.844H931.41a.924.924,0,0,1,.921.844l.843,9.793a29.675,29.675,0,0,1,5.268,2.172l7.514-6.322a.926.926,0,0,1,1.249.054l9.839,9.839a.925.925,0,0,1,.053,1.249l-6.322,7.514a29.624,29.624,0,0,1,2.174,5.267l9.793.844a.923.923,0,0,1,.844.921v13.914a.924.924,0,0,1-.844.921l-9.793.844a29.7,29.7,0,0,1-2.174,5.267L957.1,399a.925.925,0,0,1-.053,1.249l-9.839,9.837a.927.927,0,0,1-1.249.054l-7.514-6.32a30.023,30.023,0,0,1-5.268,2.174l-.843,9.791a.924.924,0,0,1-.921.844" transform="translate(621.468 237.607)" fill="#263338"/>
        <path id="Path_47" data-name="Path 47" d="M873.127,214.115a28.785,28.785,0,0,0-28.636,25.576.927.927,0,0,1-.9.82,15.638,15.638,0,0,0,.342,31.272H983.078a15.641,15.641,0,0,0,9.883-27.768.923.923,0,0,1-.315-.924,37.02,37.02,0,0,0-45.734-44.069.926.926,0,0,1-1.044-.437,35.476,35.476,0,0,0-66.314,15.192.923.923,0,0,1-1.093.851,29.14,29.14,0,0,0-5.336-.512m109.952,59.517H843.934a17.486,17.486,0,0,1-1.181-34.933,30.567,30.567,0,0,1,35.035-26.061,37.324,37.324,0,0,1,69.333-15.58,38.859,38.859,0,0,1,47.45,45.9,17.49,17.49,0,0,1-11.492,30.679" transform="translate(580.12 125.47)" fill="#263338"/>
        <path id="Path_48" data-name="Path 48" d="M880.043,266.1a.924.924,0,0,1-.924-.924V226.83a.924.924,0,1,1,1.849,0v38.344a.924.924,0,0,1-.924.924" transform="translate(617.114 158.637)" fill="#263338"/>
        <path id="Path_49" data-name="Path 49" d="M880.043,229.577a.924.924,0,0,1-.924-.924V213.315a.924.924,0,1,1,1.849,0v15.337a.924.924,0,0,1-.924.924" transform="translate(617.114 149.146)" fill="#263338"/>
        <path id="Path_50" data-name="Path 50" d="M880.043,214.023a.924.924,0,0,1-.924-.924v-8.2a.924.924,0,1,1,1.849,0v8.2a.924.924,0,0,1-.924.924" transform="translate(617.114 143.234)" fill="#263338"/>
        <path id="Path_51" data-name="Path 51" d="M883.031,256.611a.925.925,0,0,1-.718-.342l-7.241-8.964a.924.924,0,1,1,1.437-1.163l6.523,8.075,6.523-8.075a.924.924,0,1,1,1.437,1.163l-7.241,8.964a.925.925,0,0,1-.718.342" transform="translate(614.127 172.607)" fill="#263338"/>
        <path id="Path_52" data-name="Path 52" d="M624.061,478.336a28.787,28.787,0,0,0-28.638,25.576.925.925,0,0,1-.9.82,15.638,15.638,0,0,0,.344,31.273H734.013a15.643,15.643,0,0,0,9.885-27.768.927.927,0,0,1-.317-.924,37.025,37.025,0,0,0-45.734-44.071.924.924,0,0,1-1.045-.437A35.477,35.477,0,0,0,630.488,478a.923.923,0,0,1-1.093.849,29.1,29.1,0,0,0-5.335-.514m109.952,59.518H594.868a17.486,17.486,0,0,1-1.183-34.933,30.633,30.633,0,0,1,30.376-26.434,30.153,30.153,0,0,1,4.661.373,37.325,37.325,0,0,1,69.333-15.582,38.861,38.861,0,0,1,47.45,45.9,17.49,17.49,0,0,1-11.492,30.677" transform="translate(405.22 311.013)" fill="#263338"/>
        <path id="Path_53" data-name="Path 53" d="M630.978,511.018a.924.924,0,0,1-.926-.924V471.749a.924.924,0,1,1,1.849,0v38.344a.923.923,0,0,1-.923.924" transform="translate(442.213 330.625)" fill="#263338"/>
        <path id="Path_54" data-name="Path 54" d="M630.978,515.043a.924.924,0,0,1-.926-.924V498.781a.924.924,0,1,1,1.849,0v15.337a.923.923,0,0,1-.923.924" transform="translate(442.213 349.608)" fill="#263338"/>
        <path id="Path_55" data-name="Path 55" d="M630.978,520.519a.923.923,0,0,1-.926-.924v-8.2a.924.924,0,1,1,1.849,0v8.2a.922.922,0,0,1-.923.924" transform="translate(442.213 358.463)" fill="#263338"/>
        <path id="Path_56" data-name="Path 56" d="M641.208,479a.93.93,0,0,1-.722-.342l-6.521-8.074-6.523,8.074A.925.925,0,0,1,626,477.491l7.24-8.964a.962.962,0,0,1,1.44,0l7.24,8.964a.921.921,0,0,1-.136,1.3.907.907,0,0,1-.579.206" transform="translate(439.226 328.784)" fill="#263338"/>
        <path id="Path_57" data-name="Path 57" d="M978.533,224.771H498.139V202.863a7.83,7.83,0,0,1,7.829-7.83H970.7a7.83,7.83,0,0,1,7.828,7.83Z" transform="translate(349.581 136.957)" fill="#63eba8"/>
      </g>
    </g>
    <g id="Group_93" data-name="Group 93" transform="translate(0.202)">
      <g id="Group_92" data-name="Group 92" clip-path="url(#clip-path)">
        <rect id="Rectangle_1351" data-name="Rectangle 1351" width="485.548" height="341.674" transform="translate(868.737 367.235)" fill="#fff"/>
      </g>
    </g>
    <g id="Group_95" data-name="Group 95" transform="translate(0.202)">
      <g id="Group_94" data-name="Group 94" clip-path="url(#clip-path)">
        <path id="Path_58" data-name="Path 58" d="M511.791,556.869h483.7V217.044h-483.7Zm484.625,1.849H510.866a.924.924,0,0,1-.924-.924V216.119a.924.924,0,0,1,.924-.924h485.55a.924.924,0,0,1,.924.924V557.793a.924.924,0,0,1-.924.924" transform="translate(357.869 151.115)" fill="#263338"/>
        <path id="Path_59" data-name="Path 59" d="M806.23,206.835A7.434,7.434,0,1,1,798.8,199.4a7.433,7.433,0,0,1,7.434,7.434" transform="translate(555.488 140.024)" fill="#fff"/>
        <path id="Path_60" data-name="Path 60" d="M799.177,200.707a6.51,6.51,0,1,0,6.511,6.511,6.519,6.519,0,0,0-6.511-6.511m0,14.869a8.359,8.359,0,1,1,8.358-8.358,8.367,8.367,0,0,1-8.358,8.358" transform="translate(555.108 139.643)" fill="#263338"/>
        <path id="Path_61" data-name="Path 61" d="M790.855,206.835a7.435,7.435,0,1,1-7.434-7.434,7.433,7.433,0,0,1,7.434,7.434" transform="translate(544.692 140.024)" fill="#fff"/>
        <path id="Path_62" data-name="Path 62" d="M783.8,200.707a6.51,6.51,0,1,0,6.509,6.511,6.519,6.519,0,0,0-6.509-6.511m0,14.869a8.359,8.359,0,1,1,8.358-8.358,8.367,8.367,0,0,1-8.358,8.358" transform="translate(544.311 139.643)" fill="#263338"/>
        <path id="Path_63" data-name="Path 63" d="M775.481,206.835a7.434,7.434,0,1,1-7.434-7.434,7.433,7.433,0,0,1,7.434,7.434" transform="translate(533.896 140.024)" fill="#fff"/>
        <path id="Path_64" data-name="Path 64" d="M768.428,200.707a6.51,6.51,0,1,0,6.511,6.511,6.517,6.517,0,0,0-6.511-6.511m0,14.869a8.359,8.359,0,1,1,8.358-8.358,8.367,8.367,0,0,1-8.358,8.358" transform="translate(533.515 139.643)" fill="#263338"/>
        <path id="Path_65" data-name="Path 65" d="M795.783,226.957h-19.23a1.849,1.849,0,0,1,0-3.7h19.23a1.849,1.849,0,1,1,0,3.7" transform="translate(543.793 156.779)" fill="#263338"/>
        <path id="Path_66" data-name="Path 66" d="M795.783,231.539h-19.23a1.849,1.849,0,0,1,0-3.7h19.23a1.849,1.849,0,0,1,0,3.7" transform="translate(543.793 159.996)" fill="#263338"/>
        <path id="Path_67" data-name="Path 67" d="M795.783,236.12h-19.23a1.849,1.849,0,0,1,0-3.7h19.23a1.849,1.849,0,1,1,0,3.7" transform="translate(543.793 163.213)" fill="#263338"/>
        <path id="Path_68" data-name="Path 68" d="M531.007,345.392h145.5a1.849,1.849,0,1,0,0-3.7h-145.5a1.849,1.849,0,1,0,0,3.7" transform="translate(371.363 239.947)" fill="#263338"/>
        <path id="Path_69" data-name="Path 69" d="M531.007,352.134h145.5a1.848,1.848,0,1,0,0-3.7h-145.5a1.848,1.848,0,1,0,0,3.7" transform="translate(371.363 244.682)" fill="#263338"/>
        <path id="Path_70" data-name="Path 70" d="M531.007,359.005H645.73a1.849,1.849,0,0,0,0-3.7H531.007a1.849,1.849,0,0,0,0,3.7" transform="translate(371.363 249.506)" fill="#263338"/>
        <path id="Path_71" data-name="Path 71" d="M710.964,218.383v.924a.923.923,0,1,0,1.847,0v-.924a.923.923,0,1,0-1.847,0" transform="translate(499.032 152.705)" fill="#263338"/>
        <path id="Path_72" data-name="Path 72" d="M711.887,224.948a.924.924,0,0,1-.924-.924v-1.845a.924.924,0,1,1,1.849,0v1.845a.924.924,0,0,1-.924.924m0,7.381a.924.924,0,0,1-.924-.924v-1.845a.924.924,0,0,1,1.849,0V231.4a.924.924,0,0,1-.924.924m0,7.381a.924.924,0,0,1-.924-.924v-1.844a.924.924,0,0,1,1.849,0v1.844a.924.924,0,0,1-.924.924m0,7.383a.924.924,0,0,1-.924-.924v-1.845a.924.924,0,0,1,1.849,0v1.845a.924.924,0,0,1-.924.924m0,7.381a.924.924,0,0,1-.924-.924V251.7a.924.924,0,0,1,1.849,0v1.845a.924.924,0,0,1-.924.924m0,7.381a.924.924,0,0,1-.924-.924v-1.844a.924.924,0,0,1,1.849,0v1.844a.924.924,0,0,1-.924.924m0,7.383a.924.924,0,0,1-.924-.924v-1.845a.924.924,0,0,1,1.849,0v1.845a.924.924,0,0,1-.924.924m0,7.381a.924.924,0,0,1-.924-.924v-1.845a.924.924,0,0,1,1.849,0v1.845a.924.924,0,0,1-.924.924m0,7.381a.924.924,0,0,1-.924-.924v-1.845a.924.924,0,0,1,1.849,0v1.845a.924.924,0,0,1-.924.924m0,7.382a.924.924,0,0,1-.924-.924v-1.845a.924.924,0,0,1,1.849,0v1.845a.924.924,0,0,1-.924.924m0,7.381a.924.924,0,0,1-.924-.924v-1.845a.924.924,0,0,1,1.849,0v1.845a.924.924,0,0,1-.924.924m0,7.381a.924.924,0,0,1-.924-.924v-1.845a.924.924,0,0,1,1.849,0v1.845a.924.924,0,0,1-.924.924m0,7.381a.923.923,0,0,1-.924-.923v-1.845a.924.924,0,0,1,1.849,0V312.6a.923.923,0,0,1-.924.923m0,7.383a.924.924,0,0,1-.924-.924v-1.845a.924.924,0,0,1,1.849,0v1.845a.924.924,0,0,1-.924.924m0,7.381a.924.924,0,0,1-.924-.924v-1.845a.924.924,0,1,1,1.849,0v1.845a.924.924,0,0,1-.924.924m0,7.381a.923.923,0,0,1-.924-.924V332.9a.924.924,0,0,1,1.849,0v1.843a.923.923,0,0,1-.924.924m0,7.383a.924.924,0,0,1-.924-.924V340.28a.924.924,0,0,1,1.849,0v1.845a.924.924,0,0,1-.924.924m0,7.381a.924.924,0,0,1-.924-.924v-1.845a.924.924,0,0,1,1.849,0v1.845a.924.924,0,0,1-.924.924m0,7.381a.923.923,0,0,1-.924-.924v-1.843a.924.924,0,0,1,1.849,0v1.843a.923.923,0,0,1-.924.924m0,7.383a.924.924,0,0,1-.924-.924v-1.845a.924.924,0,0,1,1.849,0v1.845a.924.924,0,0,1-.924.924m0,7.381a.924.924,0,0,1-.924-.924v-1.845a.924.924,0,0,1,1.849,0v1.845a.924.924,0,0,1-.924.924m0,7.381a.923.923,0,0,1-.924-.924v-1.845a.924.924,0,0,1,1.849,0v1.845a.923.923,0,0,1-.924.924m0,7.383a.924.924,0,0,1-.924-.924v-1.845a.924.924,0,0,1,1.849,0v1.845a.924.924,0,0,1-.924.924m0,7.381a.924.924,0,0,1-.924-.924V391.95a.924.924,0,0,1,1.849,0v1.845a.924.924,0,0,1-.924.924m0,7.381a.923.923,0,0,1-.924-.924v-1.845a.924.924,0,0,1,1.849,0v1.845a.923.923,0,0,1-.924.924m0,7.383a.924.924,0,0,1-.924-.924v-1.845a.924.924,0,0,1,1.849,0v1.845a.924.924,0,0,1-.924.924m0,7.381a.924.924,0,0,1-.924-.924v-1.845a.924.924,0,0,1,1.849,0v1.845a.924.924,0,0,1-.924.924m0,7.381a.923.923,0,0,1-.924-.924v-1.845a.924.924,0,0,1,1.849,0v1.845a.923.923,0,0,1-.924.924m0,7.383a.924.924,0,0,1-.924-.924v-1.845a.924.924,0,0,1,1.849,0V430.7a.924.924,0,0,1-.924.924m0,7.381a.924.924,0,0,1-.924-.924v-1.845a.924.924,0,0,1,1.849,0v1.845a.924.924,0,0,1-.924.924m0,7.381a.923.923,0,0,1-.924-.924v-1.844a.924.924,0,0,1,1.849,0v1.844a.923.923,0,0,1-.924.924m0,7.383a.924.924,0,0,1-.924-.924V451a.924.924,0,0,1,1.849,0v1.847a.924.924,0,0,1-.924.924m0,7.381a.924.924,0,0,1-.924-.924v-1.845a.924.924,0,0,1,1.849,0v1.845a.924.924,0,0,1-.924.924m0,7.381a.923.923,0,0,1-.924-.924v-1.844a.924.924,0,0,1,1.849,0v1.844a.923.923,0,0,1-.924.924m0,7.383a.924.924,0,0,1-.924-.924v-1.847a.924.924,0,0,1,1.849,0v1.847a.924.924,0,0,1-.924.924m0,7.381a.924.924,0,0,1-.924-.924v-1.845a.924.924,0,0,1,1.849,0v1.845a.924.924,0,0,1-.924.924m0,7.381a.923.923,0,0,1-.924-.924v-1.844a.924.924,0,0,1,1.849,0v1.844a.923.923,0,0,1-.924.924m0,7.383a.924.924,0,0,1-.924-.924v-1.847a.924.924,0,0,1,1.849,0v1.847a.924.924,0,0,1-.924.924m0,7.381a.924.924,0,0,1-.924-.924v-1.845a.924.924,0,0,1,1.849,0v1.845a.924.924,0,0,1-.924.924m0,7.381a.923.923,0,0,1-.924-.924v-1.845a.924.924,0,0,1,1.849,0V511.9a.923.923,0,0,1-.924.924m0,7.381a.924.924,0,0,1-.924-.924v-1.845a.924.924,0,0,1,1.849,0v1.845a.924.924,0,0,1-.924.924m0,7.383a.924.924,0,0,1-.924-.924v-1.845a.924.924,0,0,1,1.849,0v1.845a.924.924,0,0,1-.924.924m0,7.381a.923.923,0,0,1-.924-.924V532.2a.924.924,0,0,1,1.849,0v1.845a.923.923,0,0,1-.924.924m0,7.381a.924.924,0,0,1-.924-.924v-1.845a.924.924,0,0,1,1.849,0v1.845a.924.924,0,0,1-.924.924" transform="translate(499.031 155.37)" fill="#263338"/>
        <path id="Path_73" data-name="Path 73" d="M710.964,412.976v.924a.923.923,0,1,0,1.847,0v-.924a.923.923,0,1,0-1.847,0" transform="translate(499.032 289.353)" fill="#263338"/>
        <path id="Path_74" data-name="Path 74" d="M514.3,372.753h.922a.924.924,0,1,0,0-1.849H514.3a.924.924,0,1,0,0,1.849" transform="translate(360.282 260.458)" fill="#263338"/>
        <path id="Path_75" data-name="Path 75" d="M518.1,372.753h1.844a.924.924,0,0,0,0-1.849H518.1a.924.924,0,1,0,0,1.849m7.379,0h1.843a.924.924,0,1,0,0-1.849h-1.843a.924.924,0,1,0,0,1.849m7.377,0H534.7a.924.924,0,1,0,0-1.849h-1.845a.924.924,0,0,0,0,1.849m7.379,0h1.845a.924.924,0,0,0,0-1.849h-1.845a.924.924,0,0,0,0,1.849m7.379,0h1.845a.924.924,0,0,0,0-1.849h-1.845a.924.924,0,0,0,0,1.849m7.379,0h1.845a.924.924,0,1,0,0-1.849h-1.845a.924.924,0,1,0,0,1.849m7.379,0h1.845a.924.924,0,0,0,0-1.849H562.37a.924.924,0,0,0,0,1.849m7.379,0h1.845a.924.924,0,0,0,0-1.849H569.75a.924.924,0,0,0,0,1.849m7.379,0h1.845a.924.924,0,0,0,0-1.849h-1.845a.924.924,0,0,0,0,1.849m7.379,0h1.845a.924.924,0,0,0,0-1.849h-1.845a.924.924,0,0,0,0,1.849m7.379,0h1.845a.924.924,0,1,0,0-1.849h-1.845a.924.924,0,1,0,0,1.849m7.379,0h1.845a.924.924,0,0,0,0-1.849h-1.845a.924.924,0,0,0,0,1.849m7.379,0h1.845a.924.924,0,1,0,0-1.849h-1.845a.924.924,0,0,0,0,1.849m7.379,0h1.845a.924.924,0,1,0,0-1.849h-1.845a.924.924,0,1,0,0,1.849m7.379,0h1.845a.924.924,0,0,0,0-1.849H621.4a.924.924,0,1,0,0,1.849m7.379,0h1.845a.924.924,0,0,0,0-1.849h-1.845a.924.924,0,0,0,0,1.849m7.379,0h1.845a.924.924,0,0,0,0-1.849h-1.845a.924.924,0,1,0,0,1.849m7.379,0h1.844a.924.924,0,0,0,0-1.849h-1.844a.924.924,0,0,0,0,1.849m7.379,0h1.844a.924.924,0,0,0,0-1.849H650.92a.924.924,0,0,0,0,1.849m7.379,0h1.844a.924.924,0,0,0,0-1.849H658.3a.924.924,0,0,0,0,1.849m7.379,0h1.844a.924.924,0,0,0,0-1.849h-1.844a.924.924,0,0,0,0,1.849m7.379,0H674.9a.924.924,0,0,0,0-1.849h-1.844a.924.924,0,1,0,0,1.849m7.379,0h1.844a.924.924,0,0,0,0-1.849h-1.844a.924.924,0,0,0,0,1.849m7.377,0h1.845a.924.924,0,1,0,0-1.849h-1.845a.924.924,0,0,0,0,1.849m7.379,0h1.845a.924.924,0,0,0,0-1.849h-1.845a.924.924,0,0,0,0,1.849m7.379,0h1.845a.924.924,0,1,0,0-1.849h-1.845a.924.924,0,0,0,0,1.849m7.379,0H711.8a.924.924,0,1,0,0-1.849h-1.845a.924.924,0,0,0,0,1.849m7.379,0h1.845a.924.924,0,0,0,0-1.849h-1.845a.924.924,0,0,0,0,1.849m7.379,0h1.845a.924.924,0,0,0,0-1.849H724.71a.924.924,0,0,0,0,1.849m7.379,0h1.845a.924.924,0,1,0,0-1.849h-1.845a.924.924,0,1,0,0,1.849m7.379,0h1.845a.924.924,0,0,0,0-1.849h-1.845a.924.924,0,0,0,0,1.849m7.379,0h1.845a.924.924,0,0,0,0-1.849h-1.845a.924.924,0,0,0,0,1.849m7.379,0h1.845a.924.924,0,0,0,0-1.849h-1.845a.924.924,0,0,0,0,1.849m7.379,0h1.845a.924.924,0,0,0,0-1.849h-1.845a.924.924,0,0,0,0,1.849m7.379,0h1.845a.924.924,0,1,0,0-1.849h-1.845a.924.924,0,1,0,0,1.849m7.379,0h1.845a.924.924,0,0,0,0-1.849h-1.845a.924.924,0,0,0,0,1.849m7.379,0h1.844a.924.924,0,1,0,0-1.849h-1.844a.924.924,0,0,0,0,1.849m7.379,0h1.843a.924.924,0,1,0,0-1.849h-1.843a.924.924,0,1,0,0,1.849m7.379,0h1.843a.924.924,0,1,0,0-1.849H798.5a.924.924,0,0,0,0,1.849m7.379,0h1.843a.924.924,0,1,0,0-1.849h-1.843a.924.924,0,1,0,0,1.849m7.379,0H815.1a.924.924,0,0,0,0-1.849H813.26a.924.924,0,1,0,0,1.849m7.378,0h1.845a.924.924,0,1,0,0-1.849h-1.845a.924.924,0,0,0,0,1.849m7.379,0h1.845a.924.924,0,0,0,0-1.849h-1.845a.924.924,0,1,0,0,1.849m7.379,0h1.845a.924.924,0,0,0,0-1.849H835.4a.924.924,0,0,0,0,1.849m7.379,0h1.845a.924.924,0,1,0,0-1.849h-1.845a.924.924,0,1,0,0,1.849m7.379,0H852a.924.924,0,0,0,0-1.849h-1.845a.924.924,0,1,0,0,1.849m7.379,0h1.845a.924.924,0,1,0,0-1.849h-1.845a.924.924,0,0,0,0,1.849m7.379,0h1.845a.924.924,0,1,0,0-1.849h-1.845a.924.924,0,1,0,0,1.849m7.379,0h1.845a.924.924,0,1,0,0-1.849h-1.845a.924.924,0,1,0,0,1.849m7.379,0h1.845a.924.924,0,0,0,0-1.849H879.67a.924.924,0,0,0,0,1.849m7.379,0h1.845a.924.924,0,0,0,0-1.849H887.05a.924.924,0,0,0,0,1.849m7.379,0h1.845a.924.924,0,0,0,0-1.849h-1.845a.924.924,0,0,0,0,1.849m7.379,0h1.844a.924.924,0,0,0,0-1.849h-1.844a.924.924,0,0,0,0,1.849m7.379,0h1.843a.924.924,0,1,0,0-1.849h-1.843a.924.924,0,1,0,0,1.849m7.379,0h1.843a.924.924,0,1,0,0-1.849h-1.843a.924.924,0,0,0,0,1.849m7.377,0h1.845a.924.924,0,0,0,0-1.849h-1.845a.924.924,0,0,0,0,1.849m7.379,0h1.845a.924.924,0,0,0,0-1.849h-1.845a.924.924,0,0,0,0,1.849m7.379,0h1.845a.924.924,0,1,0,0-1.849H938.7a.924.924,0,1,0,0,1.849m7.379,0h1.845a.924.924,0,0,0,0-1.849h-1.845a.924.924,0,1,0,0,1.849m7.379,0h1.845a.924.924,0,0,0,0-1.849H953.46a.924.924,0,0,0,0,1.849m7.379,0h1.845a.924.924,0,1,0,0-1.849h-1.845a.924.924,0,0,0,0,1.849m7.379,0h1.845a.924.924,0,0,0,0-1.849h-1.845a.924.924,0,0,0,0,1.849m7.379,0h1.845a.924.924,0,0,0,0-1.849H975.6a.924.924,0,0,0,0,1.849" transform="translate(362.947 260.458)" fill="#263338"/>
        <path id="Path_76" data-name="Path 76" d="M791.2,372.753h.924a.924.924,0,0,0,0-1.849H791.2a.924.924,0,0,0,0,1.849" transform="translate(554.726 260.458)" fill="#263338"/>
      </g>
    </g>
    <g id="Group_97" data-name="Group 97" transform="translate(0.202)">
      <g id="Group_96" data-name="Group 96" clip-path="url(#clip-path)">
        <rect id="Rectangle_1354" data-name="Rectangle 1354" width="6.37" height="6.37" transform="translate(1207.733 629.102)" fill="#fff"/>
      </g>
    </g>
    <g id="Group_99" data-name="Group 99" transform="translate(0.202)">
      <g id="Group_98" data-name="Group 98" clip-path="url(#clip-path)">
        <path id="Path_77" data-name="Path 77" d="M710.941,375.4h4.521v-4.521h-4.521Zm5.445,1.849h-6.37a.924.924,0,0,1-.924-.924v-6.37a.924.924,0,0,1,.924-.924h6.37a.924.924,0,0,1,.924.924v6.37a.924.924,0,0,1-.924.924" transform="translate(497.717 259.144)" fill="#263338"/>
        <path id="Path_78" data-name="Path 78" d="M665.216,138.7H574.092a4.022,4.022,0,0,0-4.022,4.021v42.408a4.022,4.022,0,0,0,4.022,4.022h40.893l4.669,16.714,4.668-16.714h40.894a4.021,4.021,0,0,0,4.021-4.022V142.72a4.021,4.021,0,0,0-4.021-4.021" transform="translate(400.092 97.398)" fill="#64eba9"/>
        <path id="Path_79" data-name="Path 79" d="M579.74,148.443h68.845a1.849,1.849,0,1,0,0-3.7H579.74a1.849,1.849,0,0,0,0,3.7" transform="translate(405.584 101.644)" fill="#263338"/>
        <path id="Path_80" data-name="Path 80" d="M579.74,153.566h68.845a1.849,1.849,0,1,0,0-3.7H579.74a1.849,1.849,0,0,0,0,3.7" transform="translate(405.584 105.242)" fill="#263338"/>
        <path id="Path_81" data-name="Path 81" d="M579.74,158.69h68.845a1.849,1.849,0,1,0,0-3.7H579.74a1.849,1.849,0,0,0,0,3.7" transform="translate(405.584 108.84)" fill="#263338"/>
        <path id="Path_82" data-name="Path 82" d="M579.74,163.814h51.886a1.849,1.849,0,1,0,0-3.7H579.74a1.849,1.849,0,0,0,0,3.7" transform="translate(405.584 112.438)" fill="#263338"/>
      </g>
    </g>
    <g id="Group_101" data-name="Group 101" transform="translate(0.202)">
      <g id="Group_100" data-name="Group 100" clip-path="url(#clip-path)">
        <rect id="Rectangle_1357" data-name="Rectangle 1357" width="99.167" height="62.153" transform="translate(928.962 686.284)" fill="#0d0d24"/>
        <rect id="Rectangle_1358" data-name="Rectangle 1358" width="99.167" height="9.449" transform="translate(928.962 686.284)" fill="#64eba9"/>
      </g>
    </g>
    <g id="Group_103" data-name="Group 103" transform="translate(0.202)">
      <g id="Group_102" data-name="Group 102" clip-path="url(#clip-path)">
        <path id="Path_83" data-name="Path 83" d="M552.193,414.7h25.348a.924.924,0,0,0,0-1.849H552.193a.924.924,0,1,0,0,1.849" transform="translate(386.89 289.918)" fill="#fff"/>
        <path id="Path_84" data-name="Path 84" d="M559.638,418.857h43.87a.924.924,0,0,0,0-1.849h-43.87a.924.924,0,1,0,0,1.849" transform="translate(392.118 292.834)" fill="#fff"/>
        <path id="Path_85" data-name="Path 85" d="M556.345,422.731h12.917a.924.924,0,0,0,0-1.849H556.345a.924.924,0,0,0,0,1.849" transform="translate(389.805 295.554)" fill="#fff"/>
        <path id="Path_86" data-name="Path 86" d="M559.638,427.3h29.547a.924.924,0,1,0,0-1.849H559.638a.924.924,0,1,0,0,1.849" transform="translate(392.118 298.766)" fill="#fff"/>
        <path id="Path_87" data-name="Path 87" d="M552.193,431.457h25.348a.924.924,0,0,0,0-1.849H552.193a.924.924,0,1,0,0,1.849" transform="translate(386.89 301.682)" fill="#fff"/>
        <path id="Path_88" data-name="Path 88" d="M732.063,334.919H646.924a.924.924,0,1,0,0,1.849h85.139a.924.924,0,0,0,0-1.849" transform="translate(453.412 235.189)" fill="#263338"/>
        <path id="Path_89" data-name="Path 89" d="M735.3,375.289a45.834,45.834,0,0,0-5.643-20.229A37.033,37.033,0,0,0,716.2,341.119c-6.373-3.8-14.842-6.314-26.031-6.312s-19.657,2.507-26.031,6.312a38.563,38.563,0,0,0-16.721,21.361,44.493,44.493,0,0,0-2.38,12.809.924.924,0,1,0,1.849,0s0-.133.01-.41a44.194,44.194,0,0,1,6.475-20.726,34.931,34.931,0,0,1,12.874-12.111c5.924-3.244,13.689-5.384,23.923-5.386,10.916,0,19.024,2.436,25.084,6.05a36.72,36.72,0,0,1,15.916,20.362,46.123,46.123,0,0,1,2,8.69c.143,1.106.215,2,.25,2.608.017.3.025.54.031.7l0,.226a.924.924,0,1,0,1.849,0" transform="translate(452.737 235.11)" fill="#263338"/>
        <path id="Path_90" data-name="Path 90" d="M695.333,360.125a3.724,3.724,0,1,1,3.724,3.725,3.725,3.725,0,0,1-3.724-3.725" transform="translate(488.055 250.274)" fill="#64eba9"/>
        <path id="Path_91" data-name="Path 91" d="M643.393,360.125a3.724,3.724,0,1,1,3.724,3.725,3.725,3.725,0,0,1-3.724-3.725" transform="translate(451.582 250.274)" fill="#64eba9"/>
        <rect id="Rectangle_1360" data-name="Rectangle 1360" width="6.548" height="6.548" transform="translate(1183.838 567.566)" fill="#64eba9"/>
        <rect id="Rectangle_1361" data-name="Rectangle 1361" width="6.55" height="6.548" transform="translate(1139.631 567.566)" fill="#64eba9"/>
        <rect id="Rectangle_1362" data-name="Rectangle 1362" width="6.548" height="6.548" transform="translate(1095.424 567.566)" fill="#64eba9"/>
        <path id="Path_92" data-name="Path 92" d="M555.039,291.726a15.188,15.188,0,1,1,15.189-15.187,15.187,15.187,0,0,1-15.189,15.187m35.893-8.652V270l-9.791-.843a26.89,26.89,0,0,0-2.421-5.868l6.32-7.512-9.243-9.243-7.512,6.32a26.885,26.885,0,0,0-5.868-2.421l-.843-9.791H548.5l-.844,9.791a26.906,26.906,0,0,0-5.866,2.421l-7.514-6.32-9.241,9.243,6.32,7.512a26.883,26.883,0,0,0-2.422,5.868l-9.789.843v13.071l9.789.844a26.952,26.952,0,0,0,2.422,5.868l-6.32,7.512,9.241,9.241,7.514-6.32a27,27,0,0,0,5.866,2.422l.844,9.789h13.071l.843-9.789a26.974,26.974,0,0,0,5.868-2.422l7.512,6.32,9.243-9.241-6.32-7.514a26.91,26.91,0,0,0,2.421-5.866Z" transform="translate(364.333 168.988)" fill="#64eba9"/>
        <path id="Path_93" data-name="Path 93" d="M583.117,300.7a10.4,10.4,0,1,1,10.4-10.4,10.4,10.4,0,0,1-10.4,10.4m24.57-5.924v-8.947l-6.7-.577a18.465,18.465,0,0,0-1.658-4.017l4.327-5.142-6.327-6.327-5.142,4.327a18.489,18.489,0,0,0-4.016-1.656l-.579-6.7h-8.947l-.577,6.7a18.468,18.468,0,0,0-4.017,1.656l-5.143-4.327-6.325,6.327,4.325,5.142a18.463,18.463,0,0,0-1.656,4.017l-6.7.577v8.947l6.7.577a18.462,18.462,0,0,0,1.656,4.017l-4.325,5.142,6.325,6.325,5.143-4.325a18.465,18.465,0,0,0,4.017,1.656l.577,6.7h8.947l.579-6.7a18.486,18.486,0,0,0,4.016-1.656l5.142,4.325,6.327-6.325-4.327-5.142a18.465,18.465,0,0,0,1.658-4.017Z" transform="translate(392.002 186.604)" fill="#64eba9"/>
        <path id="Path_94" data-name="Path 94" d="M723,386.825h71.574a1.849,1.849,0,0,0,0-3.7H723a1.849,1.849,0,1,0,0,3.7" transform="translate(506.188 269.042)" fill="#263338"/>
        <path id="Path_95" data-name="Path 95" d="M723,393.568h71.574a1.849,1.849,0,0,0,0-3.7H723a1.849,1.849,0,0,0,0,3.7" transform="translate(506.188 273.777)" fill="#263338"/>
        <path id="Path_96" data-name="Path 96" d="M723,400.438H763.8a1.849,1.849,0,0,0,0-3.7H723a1.849,1.849,0,0,0,0,3.7" transform="translate(506.188 278.602)" fill="#263338"/>
        <path id="Path_97" data-name="Path 97" d="M686.2,408.272H648.521a9.274,9.274,0,0,1,0-18.547H686.2a9.274,9.274,0,1,1,0,18.547" transform="translate(448.67 273.675)" fill="#7d53dd"/>
        <path id="Path_98" data-name="Path 98" d="M727.455,408.272H689.773a9.274,9.274,0,1,1,0-18.547h37.682a9.274,9.274,0,1,1,0,18.547" transform="translate(477.638 273.675)" fill="#7d53dd"/>
      </g>
    </g>
    <g id="Group_105" data-name="Group 105" transform="translate(0.202)">
      <g id="Group_104" data-name="Group 104" clip-path="url(#clip-path)">
        <rect id="Rectangle_1364" data-name="Rectangle 1364" width="79.918" height="79.918" transform="translate(1234.419 483.667)" fill="#fff"/>
      </g>
    </g>
    <g id="Group_107" data-name="Group 107" transform="translate(0.202)">
      <g id="Group_106" data-name="Group 106" clip-path="url(#clip-path)">
        <path id="Path_99" data-name="Path 99" d="M726.618,363.513h78.069V285.444H726.618Zm78.993,1.849H725.693a.924.924,0,0,1-.924-.924V284.519a.924.924,0,0,1,.924-.924h79.918a.924.924,0,0,1,.924.924v79.918a.924.924,0,0,1-.924.924" transform="translate(508.726 199.148)" fill="#263338"/>
        <path id="Path_100" data-name="Path 100" d="M805.611,365.361a.921.921,0,0,1-.654-.271L725.04,285.173a.924.924,0,1,1,1.307-1.307l79.918,79.918a.924.924,0,0,1-.654,1.578" transform="translate(508.726 199.148)" fill="#263338"/>
        <path id="Path_101" data-name="Path 101" d="M725.693,365.361a.924.924,0,0,1-.654-1.578l79.918-79.918a.924.924,0,1,1,1.307,1.307l-79.918,79.918a.921.921,0,0,1-.654.271" transform="translate(508.726 199.148)" fill="#263338"/>
        <rect id="Rectangle_1366" data-name="Rectangle 1366" width="99.167" height="62.153" transform="translate(1301.943 436.197)" fill="#0d0d24"/>
        <rect id="Rectangle_1367" data-name="Rectangle 1367" width="99.167" height="9.449" transform="translate(1301.943 436.195)" fill="#64eba9"/>
      </g>
    </g>
    <g id="Group_109" data-name="Group 109" transform="translate(0.202)">
      <g id="Group_108" data-name="Group 108" clip-path="url(#clip-path)">
        <path id="Path_102" data-name="Path 102" d="M771.306,267.787h25.348a.924.924,0,0,0,0-1.849H771.306a.924.924,0,0,0,0,1.849" transform="translate(540.756 186.748)" fill="#fff"/>
        <path id="Path_103" data-name="Path 103" d="M778.751,271.939h43.87a.924.924,0,0,0,0-1.849h-43.87a.924.924,0,0,0,0,1.849" transform="translate(545.984 189.664)" fill="#fff"/>
        <path id="Path_104" data-name="Path 104" d="M775.458,275.813h12.916a.924.924,0,1,0,0-1.849H775.458a.924.924,0,1,0,0,1.849" transform="translate(543.672 192.384)" fill="#fff"/>
        <path id="Path_105" data-name="Path 105" d="M778.751,280.386H808.3a.924.924,0,0,0,0-1.849H778.751a.924.924,0,0,0,0,1.849" transform="translate(545.984 195.596)" fill="#fff"/>
        <path id="Path_106" data-name="Path 106" d="M771.306,284.539h25.348a.924.924,0,0,0,0-1.849H771.306a.924.924,0,0,0,0,1.849" transform="translate(540.756 198.512)" fill="#fff"/>
        <path id="Path_107" data-name="Path 107" d="M754.809,230.843V249.49l-8.225,8.225H727.936V230.843Z" transform="translate(510.95 162.104)" fill="#fff"/>
      </g>
    </g>
    <g id="Group_111" data-name="Group 111" transform="translate(0.202)">
      <g id="Group_110" data-name="Group 110" clip-path="url(#clip-path)">
        <path id="Path_108" data-name="Path 108" d="M729.242,257.172h17.342l7.682-7.682V232.148H729.242Zm17.725,1.849h-18.65a.924.924,0,0,1-.924-.924V231.223a.924.924,0,0,1,.924-.924H755.19a.924.924,0,0,1,.924.924v18.65a.931.931,0,0,1-.271.654l-8.224,8.223a.923.923,0,0,1-.654.271" transform="translate(510.568 161.722)" fill="#263338"/>
      </g>
    </g>
    <g id="Group_113" data-name="Group 113" transform="translate(0.202)">
      <g id="Group_112" data-name="Group 112" clip-path="url(#clip-path)">
        <path id="Path_109" data-name="Path 109" d="M747.116,241.8l-8.225,8.225V241.8Z" transform="translate(518.643 169.797)" fill="#fff"/>
      </g>
    </g>
    <g id="Group_115" data-name="Group 115" transform="translate(0.202)">
      <g id="Group_114" data-name="Group 114" clip-path="url(#clip-path)">
        <path id="Path_110" data-name="Path 110" d="M740.2,243.1v5.069l5.067-5.069Zm-.924,8.223-.354-.07a.926.926,0,0,1-.57-.855v-8.223a.924.924,0,0,1,.924-.924H747.5a.925.925,0,0,1,.654,1.578l-8.224,8.223a.924.924,0,0,1-.654.271" transform="translate(518.262 169.415)" fill="#263338"/>
      </g>
    </g>
    <g id="Group_117" data-name="Group 117" transform="translate(0.202)">
      <g id="Group_116" data-name="Group 116" clip-path="url(#clip-path)">
        <path id="Path_111" data-name="Path 111" d="M586.916,315.57v18.648l-8.225,8.225H560.043V315.57Z" transform="translate(393.051 221.601)" fill="#fff"/>
      </g>
    </g>
    <g id="Group_119" data-name="Group 119" transform="translate(0.202)">
      <g id="Group_118" data-name="Group 118" clip-path="url(#clip-path)">
        <path id="Path_112" data-name="Path 112" d="M561.349,341.9h17.341l7.684-7.682V316.876H561.349Zm17.724,1.849H560.424a.924.924,0,0,1-.924-.924V315.951a.924.924,0,0,1,.924-.924H587.3a.924.924,0,0,1,.924.924V334.6a.924.924,0,0,1-.271.654l-8.225,8.225a.924.924,0,0,1-.654.271" transform="translate(392.67 221.22)" fill="#263338"/>
      </g>
    </g>
    <g id="Group_121" data-name="Group 121" transform="translate(0.202)">
      <g id="Group_120" data-name="Group 120" clip-path="url(#clip-path)">
        <path id="Path_113" data-name="Path 113" d="M579.223,326.525,571,334.751v-8.225Z" transform="translate(400.744 229.294)" fill="#fff"/>
        <path id="Path_114" data-name="Path 114" d="M572.3,327.831V332.9l5.069-5.069Zm-.924,8.225-.354-.07a.924.924,0,0,1-.57-.855v-8.225a.924.924,0,0,1,.924-.924H579.6a.925.925,0,0,1,.654,1.578l-8.225,8.225a.924.924,0,0,1-.654.271" transform="translate(400.363 228.913)" fill="#263338"/>
        <path id="Path_115" data-name="Path 115" d="M527.26,383.063v18.648l-8.225,8.225H500.387V383.063Z" transform="translate(351.159 268.997)" fill="#fff"/>
      </g>
    </g>
    <g id="Group_123" data-name="Group 123" transform="translate(0.202)">
      <g id="Group_122" data-name="Group 122" clip-path="url(#clip-path)">
        <path id="Path_116" data-name="Path 116" d="M501.693,409.393h17.341l7.684-7.684V384.369H501.693Zm17.724,1.849H500.768a.924.924,0,0,1-.924-.924V383.444a.924.924,0,0,1,.924-.924h26.873a.924.924,0,0,1,.924.924v18.648a.931.931,0,0,1-.271.654l-8.225,8.225a.924.924,0,0,1-.654.271" transform="translate(350.778 268.615)" fill="#263338"/>
      </g>
    </g>
    <g id="Group_125" data-name="Group 125" transform="translate(0.202)">
      <g id="Group_124" data-name="Group 124" clip-path="url(#clip-path)">
        <path id="Path_117" data-name="Path 117" d="M519.567,394.019l-8.225,8.225v-8.225Z" transform="translate(358.852 276.69)" fill="#fff"/>
      </g>
    </g>
    <g id="Group_127" data-name="Group 127" transform="translate(0.202)">
      <g id="Group_126" data-name="Group 126" clip-path="url(#clip-path)">
        <path id="Path_118" data-name="Path 118" d="M512.648,395.324v5.071l5.069-5.071Zm-.924,8.225-.354-.07a.924.924,0,0,1-.57-.854V394.4a.924.924,0,0,1,.924-.924h8.225a.925.925,0,0,1,.654,1.578l-8.225,8.225a.924.924,0,0,1-.654.271" transform="translate(358.471 276.308)" fill="#263338"/>
        <path id="Path_119" data-name="Path 119" d="M733.7,436.659h-2.535a.924.924,0,0,0,0,1.849H733.7a.924.924,0,1,0,0-1.849" transform="translate(512.567 306.633)" fill="#263338"/>
        <path id="Path_120" data-name="Path 120" d="M749.6,436.659H736.5a.924.924,0,1,0,0,1.849h13.1a.924.924,0,0,0,0-1.849" transform="translate(516.315 306.633)" fill="#263338"/>
        <path id="Path_121" data-name="Path 121" d="M598.02,231.459a.924.924,0,0,1-.924-.924v-.924a.924.924,0,0,1,.924-.924h.924a2.067,2.067,0,0,1-.924,2.773" transform="translate(419.071 160.589)" fill="#263338"/>
        <path id="Path_122" data-name="Path 122" d="M603.555,230.535h-1.808a.924.924,0,0,1,0-1.849h1.808a.924.924,0,1,1,0,1.849m7.231,0h-1.808a.924.924,0,0,1,0-1.849h1.808a.924.924,0,0,1,0,1.849m7.231,0H616.21a.924.924,0,0,1,0-1.849h1.808a.924.924,0,1,1,0,1.849m7.229,0h-1.808a.924.924,0,0,1,0-1.849h1.808a.924.924,0,1,1,0,1.849m7.231,0H630.67a.924.924,0,1,1,0-1.849h1.808a.924.924,0,1,1,0,1.849m7.231,0H637.9a.924.924,0,1,1,0-1.849h1.808a.924.924,0,0,1,0,1.849m7.229,0h-1.808a.924.924,0,1,1,0-1.849h1.808a.924.924,0,1,1,0,1.849m7.231,0h-1.808a.924.924,0,0,1,0-1.849h1.808a.924.924,0,0,1,0,1.849m7.229,0h-1.808a.924.924,0,0,1,0-1.849H661.4a.924.924,0,1,1,0,1.849m7.231,0h-1.808a.924.924,0,1,1,0-1.849h1.808a.924.924,0,1,1,0,1.849m7.231,0h-1.808a.924.924,0,0,1,0-1.849h1.808a.924.924,0,0,1,0,1.849m7.229,0h-1.808a.924.924,0,1,1,0-1.849h1.808a.924.924,0,0,1,0,1.849m7.229,0h-1.806a.924.924,0,0,1,0-1.849h1.806a.924.924,0,0,1,0,1.849m7.231,0h-1.808a.924.924,0,0,1,0-1.849h1.808a.924.924,0,0,1,0,1.849m7.231,0h-1.808a.924.924,0,0,1,0-1.849h1.808a.924.924,0,1,1,0,1.849m7.229,0H710.2a.924.924,0,0,1,0-1.849h1.808a.924.924,0,0,1,0,1.849m7.231,0h-1.808a.924.924,0,0,1,0-1.849h1.808a.924.924,0,1,1,0,1.849m7.229,0h-1.806a.924.924,0,1,1,0-1.849h1.806a.924.924,0,0,1,0,1.849m7.231,0h-1.808a.924.924,0,1,1,0-1.849H733.7a.924.924,0,1,1,0,1.849m7.231,0h-1.808a.924.924,0,1,1,0-1.849h1.808a.924.924,0,1,1,0,1.849m7.229,0h-1.808a.924.924,0,0,1,0-1.849h1.808a.924.924,0,1,1,0,1.849m7.231,0h-1.808a.924.924,0,1,1,0-1.849h1.808a.924.924,0,0,1,0,1.849" transform="translate(421.689 160.589)" fill="#263338"/>
        <path id="Path_123" data-name="Path 123" d="M696.121,231.459a9897.973,9897.973,0,0,0-1.849-1.849.924.924,0,0,1,.924-.924h.924a.924.924,0,0,1,.924.924v.924a.924.924,0,0,1-.924.924" transform="translate(487.31 160.589)" fill="#263338"/>
        <path id="Path_124" data-name="Path 124" d="M695.739,236.182a.924.924,0,0,1-.924-.924V233.41a.924.924,0,1,1,1.849,0v1.847a.924.924,0,0,1-.924.924m0,7.393a.923.923,0,0,1-.924-.923V240.8a.924.924,0,1,1,1.849,0v1.849a.923.923,0,0,1-.924.923m0,7.393a.923.923,0,0,1-.924-.923V248.2a.924.924,0,0,1,1.849,0v1.849a.923.923,0,0,1-.924.923m0,7.394a.924.924,0,0,1-.924-.924v-1.849a.924.924,0,0,1,1.849,0v1.849a.924.924,0,0,1-.924.924m0,7.393a.924.924,0,0,1-.924-.924v-1.849a.924.924,0,0,1,1.849,0v1.849a.924.924,0,0,1-.924.924m0,7.393a.924.924,0,0,1-.924-.924v-1.849a.924.924,0,1,1,1.849,0v1.849a.924.924,0,0,1-.924.924m0,7.393a.924.924,0,0,1-.924-.924v-1.849a.924.924,0,0,1,1.849,0v1.849a.924.924,0,0,1-.924.924m0,7.393a.924.924,0,0,1-.924-.924V285.16a.924.924,0,1,1,1.849,0v1.849a.924.924,0,0,1-.924.924m0,7.393a.924.924,0,0,1-.924-.924v-1.849a.924.924,0,1,1,1.849,0V294.4a.924.924,0,0,1-.924.924m0,7.393a.924.924,0,0,1-.924-.924v-1.849a.924.924,0,1,1,1.849,0v1.849a.924.924,0,0,1-.924.924m0,7.393a.924.924,0,0,1-.924-.924v-1.849a.924.924,0,1,1,1.849,0v1.849a.924.924,0,0,1-.924.924m0,7.393a.924.924,0,0,1-.924-.924v-1.849a.924.924,0,1,1,1.849,0v1.849a.924.924,0,0,1-.924.924m0,7.393a.924.924,0,0,1-.924-.924v-1.849a.924.924,0,1,1,1.849,0v1.849a.924.924,0,0,1-.924.924m0,7.393a.924.924,0,0,1-.924-.924v-1.849a.924.924,0,0,1,1.849,0v1.849a.924.924,0,0,1-.924.924" transform="translate(487.691 163.258)" fill="#263338"/>
        <path id="Path_125" data-name="Path 125" d="M696.121,296.061H695.2a1.461,1.461,0,1,1,1.849-1.849v.924a.924.924,0,0,1-.924.924" transform="translate(487.31 205.954)" fill="#263338"/>
        <path id="Path_126" data-name="Path 126" d="M603.555,295.68h-1.808a.924.924,0,0,1,0-1.849h1.808a.924.924,0,0,1,0,1.849m7.231,0h-1.808a.924.924,0,0,1,0-1.849h1.808a.924.924,0,0,1,0,1.849m7.231,0H616.21a.924.924,0,0,1,0-1.849h1.808a.924.924,0,1,1,0,1.849m7.229,0h-1.808a.924.924,0,0,1,0-1.849h1.808a.924.924,0,0,1,0,1.849m7.231,0H630.67a.924.924,0,0,1,0-1.849h1.808a.924.924,0,1,1,0,1.849m7.231,0H637.9a.924.924,0,1,1,0-1.849h1.808a.924.924,0,0,1,0,1.849m7.229,0h-1.808a.924.924,0,1,1,0-1.849h1.808a.924.924,0,0,1,0,1.849m7.231,0h-1.808a.924.924,0,0,1,0-1.849h1.808a.924.924,0,0,1,0,1.849m7.229,0h-1.808a.924.924,0,0,1,0-1.849H661.4a.924.924,0,1,1,0,1.849m7.231,0h-1.808a.924.924,0,1,1,0-1.849h1.808a.924.924,0,0,1,0,1.849m7.229,0h-1.808a.924.924,0,1,1,0-1.849h1.808a.924.924,0,0,1,0,1.849m7.231,0h-1.808a.924.924,0,1,1,0-1.849h1.808a.924.924,0,0,1,0,1.849m7.229,0h-1.806a.924.924,0,0,1,0-1.849h1.806a.924.924,0,0,1,0,1.849m7.231,0h-1.808a.924.924,0,0,1,0-1.849h1.808a.924.924,0,0,1,0,1.849m7.231,0h-1.808a.924.924,0,0,1,0-1.849h1.808a.924.924,0,1,1,0,1.849m7.229,0H710.2a.924.924,0,0,1,0-1.849h1.808a.924.924,0,0,1,0,1.849m7.231,0h-1.808a.924.924,0,0,1,0-1.849h1.808a.924.924,0,1,1,0,1.849m7.229,0h-1.806a.924.924,0,1,1,0-1.849h1.806a.924.924,0,0,1,0,1.849m7.231,0h-1.808a.924.924,0,1,1,0-1.849H733.7a.924.924,0,1,1,0,1.849m7.231,0h-1.808a.924.924,0,1,1,0-1.849h1.808a.924.924,0,1,1,0,1.849m7.229,0h-1.808a.924.924,0,0,1,0-1.849h1.808a.924.924,0,1,1,0,1.849m7.231,0h-1.808a.924.924,0,1,1,0-1.849h1.808a.924.924,0,0,1,0,1.849" transform="translate(421.689 206.336)" fill="#263338"/>
        <path id="Path_127" data-name="Path 127" d="M598.945,296.061h-.924a.924.924,0,0,1-.924-.924v-.924a1.461,1.461,0,1,1,1.849,1.849" transform="translate(419.071 205.954)" fill="#263338"/>
        <path id="Path_128" data-name="Path 128" d="M598.02,236.182a.924.924,0,0,1-.924-.924V233.41a.924.924,0,1,1,1.849,0v1.847a.924.924,0,0,1-.924.924m0,7.393a.923.923,0,0,1-.924-.923V240.8a.924.924,0,1,1,1.849,0v1.849a.923.923,0,0,1-.924.923m0,7.393a.923.923,0,0,1-.924-.923V248.2a.924.924,0,0,1,1.849,0v1.849a.923.923,0,0,1-.924.923m0,7.394a.924.924,0,0,1-.924-.924v-1.849a.924.924,0,0,1,1.849,0v1.849a.924.924,0,0,1-.924.924m0,7.393a.924.924,0,0,1-.924-.924v-1.849a.924.924,0,0,1,1.849,0v1.849a.924.924,0,0,1-.924.924m0,7.393a.924.924,0,0,1-.924-.924v-1.849a.924.924,0,1,1,1.849,0v1.849a.924.924,0,0,1-.924.924m0,7.393a.924.924,0,0,1-.924-.924v-1.849a.924.924,0,0,1,1.849,0v1.849a.924.924,0,0,1-.924.924m0,7.393a.924.924,0,0,1-.924-.924V285.16a.924.924,0,1,1,1.849,0v1.849a.924.924,0,0,1-.924.924m0,7.393a.924.924,0,0,1-.924-.924v-1.849a.924.924,0,1,1,1.849,0V294.4a.924.924,0,0,1-.924.924m0,7.393a.924.924,0,0,1-.924-.924v-1.849a.924.924,0,1,1,1.849,0v1.849a.924.924,0,0,1-.924.924m0,7.393a.924.924,0,0,1-.924-.924v-1.849a.924.924,0,1,1,1.849,0v1.849a.924.924,0,0,1-.924.924m0,7.393a.924.924,0,0,1-.924-.924v-1.849a.924.924,0,1,1,1.849,0v1.849a.924.924,0,0,1-.924.924m0,7.393a.924.924,0,0,1-.924-.924v-1.849a.924.924,0,1,1,1.849,0v1.849a.924.924,0,0,1-.924.924m0,7.393a.924.924,0,0,1-.924-.924v-1.849a.924.924,0,0,1,1.849,0v1.849a.924.924,0,0,1-.924.924" transform="translate(419.071 163.258)" fill="#263338"/>
        <path id="Path_129" data-name="Path 129" d="M650.371,230.36a2.741,2.741,0,1,1-2.742-2.742,2.742,2.742,0,0,1,2.742,2.742" transform="translate(452.631 159.839)" fill="#64eba9"/>
        <path id="Path_130" data-name="Path 130" d="M601.512,262.933a2.741,2.741,0,1,1-2.742-2.742,2.742,2.742,0,0,1,2.742,2.742" transform="translate(418.321 182.713)" fill="#64eba9"/>
        <path id="Path_131" data-name="Path 131" d="M650.371,295.505a2.741,2.741,0,1,1-2.742-2.742,2.742,2.742,0,0,1,2.742,2.742" transform="translate(452.631 205.586)" fill="#64eba9"/>
        <path id="Path_132" data-name="Path 132" d="M699.231,262.933a2.741,2.741,0,1,1-2.742-2.742,2.742,2.742,0,0,1,2.742,2.742" transform="translate(486.942 182.713)" fill="#64eba9"/>
      </g>
    </g>
    <g id="Group_129" data-name="Group 129" transform="translate(0.202)">
      <g id="Group_128" data-name="Group 128" clip-path="url(#clip-path)">
        <rect id="Rectangle_1379" data-name="Rectangle 1379" width="6.37" height="6.37" transform="translate(1180.246 497.906)" fill="#64eba9"/>
        <rect id="Rectangle_1380" data-name="Rectangle 1380" width="6.37" height="6.37" transform="translate(1180.246 387.013)" fill="#64eba9"/>
        <rect id="Rectangle_1381" data-name="Rectangle 1381" width="6.37" height="6.37" transform="translate(1013.906 497.906)" fill="#64eba9"/>
        <rect id="Rectangle_1382" data-name="Rectangle 1382" width="6.37" height="6.37" transform="translate(1013.906 387.013)" fill="#64eba9"/>
        <rect id="Rectangle_1383" data-name="Rectangle 1383" width="144.769" height="91.987" transform="translate(1028.13 400.006)" fill="#fff"/>
      </g>
    </g>
    <g id="Group_131" data-name="Group 131" transform="translate(0.202)">
      <g id="Group_130" data-name="Group 130" clip-path="url(#clip-path)">
        <path id="Path_133" data-name="Path 133" d="M605.429,326.434H748.351V236.3H605.429Zm143.847,1.849H604.5a.924.924,0,0,1-.924-.924V235.371a.924.924,0,0,1,.924-.924H749.275a.924.924,0,0,1,.924.924v91.987a.924.924,0,0,1-.924.924" transform="translate(423.624 164.635)" fill="#263338"/>
        <path id="Path_134" data-name="Path 134" d="M748.893,288.883,732.8,304.977l-43.538-43.54-18.319,18.318-29.21-29.21-37.607,37.607v27.9H748.893Z" transform="translate(424.006 175.939)" fill="#64eba9"/>
        <path id="Path_135" data-name="Path 135" d="M685.989,254.545a10.221,10.221,0,1,1-10.222-10.222,10.222,10.222,0,0,1,10.222,10.222" transform="translate(467.139 171.57)" fill="#7d53dd"/>
        <path id="Path_136" data-name="Path 136" d="M1017.436,580.373c-14.369,23.409-87.271,34.4-127.066,33.364-39.774-1.02-154.3-55.246-162.065-66.727-7.194-10.634-24.873-45.78,2.378-67.025a52.752,52.752,0,0,1,7.343-4.754c18.655-10.1,142.73,21.754,142.73,21.754s7.682-4.86,10.5-4.5c8.659,1.1,14.794,8.108,32.346,13.1,4.947,1.415,13.349.063,23.016-1.29,14.265-1.995,31.282-3.992,44.009,2.9a29.431,29.431,0,0,1,6.494,4.71c19.95,19.06,34.659,45.06,20.311,68.469" transform="translate(502.568 332.328)" fill="#63eba8"/>
        <path id="Path_137" data-name="Path 137" d="M916,548.594l1.833,8s-4.879,13.854-26.342,16.113-34.165,7.017-44.478,7.634a88.2,88.2,0,0,1-16.318-.259l-2.107-3.151Z" transform="translate(581.628 385.237)" fill="#fff"/>
        <path id="Path_138" data-name="Path 138" d="M831.745,579.529a93.221,93.221,0,0,0,15.64.192c4.565-.274,9.534-1.359,15.821-2.731a248.576,248.576,0,0,1,28.607-4.9c18.925-1.992,24.538-13.262,25.346-15.145l-1.5-6.545-84.973,27.547Zm8.508,2.536a70.064,70.064,0,0,1-9.275-.494,1.063,1.063,0,0,1-.729-.46l-2.109-3.151a1.063,1.063,0,0,1,.557-1.6l87.411-28.339a1.049,1.049,0,0,1,.851.087,1.066,1.066,0,0,1,.511.686l1.833,8a1.051,1.051,0,0,1-.032.589c-.209.591-5.354,14.512-27.232,16.815a246.878,246.878,0,0,0-28.379,4.867c-6.126,1.336-11.415,2.49-16.146,2.773-2.734.163-5.163.226-7.26.226" transform="translate(581.19 384.798)" fill="#263338"/>
        <path id="Path_139" data-name="Path 139" d="M806.743,557.266l37.177,29.179s28.824-2.283,53.309-7.966l0-.019c17.618-4.079,33-9.927,33.845-17.941C932.364,548.333,919.34,545,903.86,545.47c-2.892.065-5.857.288-8.852.6-24.776,2.656-56.262-11.029-56.262-11.029Z" transform="translate(566.29 375.72)" fill="#0d0d24"/>
      </g>
    </g>
    <g id="Group_133" data-name="Group 133" transform="translate(1373.237 910.762)">
      <g id="Group_132" data-name="Group 132" clip-path="url(#clip-path-22)">
        <path id="Path_140" data-name="Path 140" d="M852.7,532.567l-10.081,7-15.589,10.826,12.906,10.13a127.8,127.8,0,0,0,12.367,3.592,5.054,5.054,0,0,1-.274-3.1,3.088,3.088,0,0,1,2.66-2.24,7.858,7.858,0,0,1,1.284-.1c4.046,0,9.109,2.71,9.987,5.6a3.089,3.089,0,0,1-.128,2.206,105.31,105.31,0,0,0,11.834.676,92.019,92.019,0,0,0,20-2.123c-4.2-11.807,3.656-21.489,6.036-24.061l-.112,0c-1.895.08-3.821.237-5.762.439a50.417,50.417,0,0,1-5.379.274,75,75,0,0,1-11.953-1.047,131.993,131.993,0,0,1-27.792-8.072" transform="translate(-792.495 -536.78)" fill="#0a0a1c"/>
      </g>
    </g>
    <g id="Group_135" data-name="Group 135" transform="translate(0.202)">
      <g id="Group_134" data-name="Group 134" clip-path="url(#clip-path)">
        <path id="Path_142" data-name="Path 142" d="M828.174,554.9c-6.7,1.093.662,14.8,9.749,10.637s-3.045-11.73-9.749-10.637" transform="translate(579.516 389.589)" fill="#fff"/>
        <path id="Path_143" data-name="Path 143" d="M828.61,555.339h0Zm1.4.953a7.858,7.858,0,0,0-1.224.092h0a1.78,1.78,0,0,0-1.614,1.273c-.405,1.457.553,4.145,2.866,6.121a7.152,7.152,0,0,0,7.885,1.232c2.056-.943,2.912-2.037,2.543-3.25-.822-2.7-6.361-5.469-10.455-5.469m4.882,11.528a9.54,9.54,0,0,1-6.232-2.427c-2.739-2.339-4.225-5.832-3.532-8.307a3.849,3.849,0,0,1,3.316-2.793c5.2-.863,12.838,2.86,14.052,6.852.409,1.345.475,3.888-3.69,5.8a9.366,9.366,0,0,1-3.913.88" transform="translate(579.079 389.15)" fill="#263338"/>
      </g>
    </g>
    <g id="Group_139" data-name="Group 139" transform="translate(1404.235 943.317)">
      <g id="Group_138" data-name="Group 138" clip-path="url(#clip-path-24)">
        <g id="Group_137" data-name="Group 137" transform="translate(29.255 -9.805)">
          <g id="Group_136" data-name="Group 136" clip-path="url(#clip-path-25)">
            <path id="Path_144" data-name="Path 144" d="M845.339,548.407a6.98,6.98,0,0,0-1.118.085,2.416,2.416,0,0,0-1.621.9c-.686.924-.563,2.4.129,3.842.366.082.73.163,1.095.242a5.106,5.106,0,0,1-.834-2.538,2.2,2.2,0,0,1,.073-.581,1.426,1.426,0,0,1,1.294-1.021h0a6.275,6.275,0,0,1,.982-.073c3.284,0,7.725,2.22,8.385,4.387a1.523,1.523,0,0,1,.066.438,1.58,1.58,0,0,1-.443,1.049c.323.041.643.082.964.121.822-1.367.034-2.872-1.491-4.121a12.947,12.947,0,0,0-7.483-2.724" transform="translate(-842.139 -548.406)" fill="#212b30"/>
          </g>
        </g>
      </g>
    </g>
    <g id="Group_141" data-name="Group 141" transform="translate(0.202)">
      <g id="Group_140" data-name="Group 140" clip-path="url(#clip-path)">
        <path id="Path_147" data-name="Path 147" d="M861.1,574.176c17.618-4.079,33-9.927,33.845-17.942,1.287-12.186-11.737-15.523-27.215-15.048-.679.648-15.681,15.16-6.63,32.989" transform="translate(602.425 380.005)" fill="#fff"/>
        <path id="Path_148" data-name="Path 148" d="M868.6,542.673c-2.077,2.118-13.842,15.117-6.5,30.717,25.765-6.068,31.752-12.489,32.209-16.828a9.889,9.889,0,0,0-2.424-8.232c-3.714-4-11.737-5.975-23.288-5.656m-7.079,33a1.063,1.063,0,0,1-.946-.581c-9.35-18.42,6.177-33.6,6.843-34.239a1.068,1.068,0,0,1,.7-.294c12.556-.386,21.079,1.743,25.327,6.322a12.056,12.056,0,0,1,2.976,9.9c-.776,7.374-12.44,13.72-34.662,18.862Z" transform="translate(601.997 379.565)" fill="#263338"/>
      </g>
    </g>
    <g id="Group_143" data-name="Group 143" transform="translate(1480.273 920.553)">
      <g id="Group_142" data-name="Group 142" clip-path="url(#clip-path-27)">
        <path id="Path_149" data-name="Path 149" d="M878.181,537.461c-.737,0-1.486.012-2.24.036-.516.487-11.17,10.8-6.4,23.906.278-.066.55-.131.817-.2a18.978,18.978,0,0,1-1.176-6.57c0-8.567,5.847-15,7.124-16.3q.973-.028,1.9-.027c8.246,0,14.006,1.578,16.777,4.562a7.553,7.553,0,0,1,2.01,5.367,11.956,11.956,0,0,1-.066,1.236c-.008.075-.019.15-.031.226.3-.121.594-.237.887-.352a8.686,8.686,0,0,0-4-8.59c-2.6-1.724-6.264-2.676-10.493-3.074-1.629-.151-3.34-.221-5.107-.221" transform="translate(-870.545 -543.135)" fill="#1f262b"/>
      </g>
    </g>
    <g id="Group_145" data-name="Group 145" transform="translate(0.202)">
      <g id="Group_144" data-name="Group 144" clip-path="url(#clip-path)">
        <path id="Path_151" data-name="Path 151" d="M853.2,559.431l.1.009a1.838,1.838,0,0,0,1.927-1.748c.37-7.675,6.276-13.929,6.339-13.991a1.841,1.841,0,0,0-2.654-2.552c-.281.294-6.921,7.282-7.36,16.363a1.842,1.842,0,0,0,1.644,1.918" transform="translate(597.757 379.615)" fill="#fff"/>
        <path id="Path_152" data-name="Path 152" d="M853.728,558.813l.077,0a.786.786,0,0,0,.552-.2.775.775,0,0,0,.252-.536c.392-8.132,6.572-14.615,6.635-14.678a.78.78,0,0,0-1.128-1.076c-.267.279-6.646,7.034-7.061,15.678a.781.781,0,0,0,.674.81m.107,2.126-.145,0-.167-.012a2.9,2.9,0,0,1-2.587-3.025c.443-9.267,6.915-16.277,7.65-17.046a2.9,2.9,0,0,1,4.186,4.019c-.058.061-5.7,6.072-6.045,13.308a2.9,2.9,0,0,1-2.892,2.759" transform="translate(597.321 379.178)" fill="#263338"/>
        <path id="Path_153" data-name="Path 153" d="M848.872,559.9l.158.008a1.836,1.836,0,0,0,1.876-1.8c.155-7.754,5.577-14.479,5.633-14.547a1.84,1.84,0,0,0-2.846-2.334c-.255.311-6.286,7.752-6.465,16.806a1.839,1.839,0,0,0,1.644,1.867" transform="translate(594.719 379.59)" fill="#fff"/>
        <path id="Path_154" data-name="Path 154" d="M855.548,542.049a.769.769,0,0,0-.6.286c-.063.077-6.051,7.42-6.223,16.154a.784.784,0,0,0,.694.792l-.112,1.055.158-1.054a1.085,1.085,0,0,0,.579-.218.765.765,0,0,0,.235-.541c.165-8.13,5.817-15.131,5.874-15.2a.783.783,0,0,0-.109-1.095ZM849.507,561.4h-.06l-.248-.015a2.918,2.918,0,0,1-2.594-2.945c.187-9.466,6.443-17.138,6.708-17.46a2.9,2.9,0,0,1,4.487,3.682c-.053.061-5.248,6.557-5.4,13.9a2.9,2.9,0,0,1-2.9,2.841" transform="translate(594.281 379.153)" fill="#263338"/>
        <path id="Path_155" data-name="Path 155" d="M843.7,559.336l.032,0a1.841,1.841,0,0,0,1.993-1.672c.567-6.448,6.051-14.692,6.106-14.774a1.84,1.84,0,0,0-3.054-2.053c-.25.37-6.068,9.107-6.717,16.5a1.841,1.841,0,0,0,1.639,1.992" transform="translate(591.085 379.222)" fill="#fff"/>
        <path id="Path_156" data-name="Path 156" d="M844.249,558.719l.126.019.453-.2a.776.776,0,0,0,.276-.526c.6-6.778,6.228-15.192,6.286-15.276a.782.782,0,0,0-.216-1.078.751.751,0,0,0-.579-.119.783.783,0,0,0-.5.33c-.059.087-5.912,8.838-6.54,16a.786.786,0,0,0,.7.844m.08,2.126-.254-.01-.051-.007a2.913,2.913,0,0,1-2.584-3.141c.676-7.7,6.639-16.626,6.891-17a2.9,2.9,0,0,1,4.821,3.232c-.056.085-5.393,8.106-5.934,14.278a2.9,2.9,0,0,1-2.889,2.647" transform="translate(590.648 378.785)" fill="#263338"/>
        <path id="Path_157" data-name="Path 157" d="M838.886,559.069l.5-.014a1.842,1.842,0,0,0,1.512-2.119c-1.309-7.815,5.951-14.508,6.026-14.575a1.84,1.84,0,0,0-2.467-2.732c-.362.327-8.835,8.092-7.19,17.912a1.843,1.843,0,0,0,1.621,1.527" transform="translate(587.575 378.61)" fill="#fff"/>
        <path id="Path_158" data-name="Path 158" d="M839.432,558.452l.225-.008a.77.77,0,0,0,.5-.315.757.757,0,0,0,.134-.579c-1.394-8.338,6.04-15.243,6.358-15.534a.779.779,0,1,0-1.044-1.157c-.342.308-8.4,7.7-6.85,16.946a.78.78,0,0,0,.681.648m.082,2.126-.3-.017h-.005a2.91,2.91,0,0,1-2.553-2.409c-1.738-10.377,7.144-18.53,7.524-18.873a2.9,2.9,0,0,1,3.89,4.3c-.065.06-6.892,6.429-5.691,13.614a2.9,2.9,0,0,1-2.381,3.34Z" transform="translate(587.138 378.174)" fill="#263338"/>
        <path id="Path_159" data-name="Path 159" d="M833.617,557.917a1.837,1.837,0,0,0,1.987-2.24c-1.6-6.965,5.267-14.84,5.337-14.917a1.841,1.841,0,0,0-2.754-2.443c-.335.378-8.2,9.359-6.167,18.183a1.835,1.835,0,0,0,1.6,1.416" transform="translate(583.805 377.587)" fill="#fff"/>
        <path id="Path_160" data-name="Path 160" d="M834.167,557.3l.252-.015a.781.781,0,0,0,.587-.934c-1.7-7.386,5.273-15.507,5.57-15.849a.778.778,0,1,0-1.156-1.042c-.083.09-7.849,8.884-5.929,17.24a.783.783,0,0,0,.676.6m.083,2.126-.306-.017a2.9,2.9,0,0,1-2.521-2.233c-2.165-9.417,6.06-18.737,6.412-19.131a2.9,2.9,0,0,1,4.339,3.854c-.063.07-6.555,7.633-5.1,13.975a2.9,2.9,0,0,1-2.175,3.478,2.854,2.854,0,0,1-.648.075" transform="translate(583.366 377.15)" fill="#263338"/>
        <path id="Path_161" data-name="Path 161" d="M721.573,541.564l-2.664,7.764s3.4,14.288,24.505,18.791,33.238,10.566,43.427,12.265a88.376,88.376,0,0,0,16.256,1.455l2.426-2.911Z" transform="translate(504.611 380.3)" fill="#fff"/>
        <path id="Path_162" data-name="Path 162" d="M720.458,549.8c.6,2.029,4.85,13.716,23.615,17.717a249.052,249.052,0,0,1,27.937,7.88c6.111,2.026,10.932,3.624,15.444,4.376a96.181,96.181,0,0,0,15.575,1.45l1.219-1.46L722.64,543.443Zm82.154,33.547a97.316,97.316,0,0,1-15.506-1.483c-4.673-.778-9.813-2.48-15.766-4.453a246.2,246.2,0,0,0-27.712-7.818c-21.516-4.589-25.169-18.973-25.314-19.584a1.051,1.051,0,0,1,.029-.589l2.664-7.764a1.064,1.064,0,0,1,1.433-.626l83.95,37.364a1.062,1.062,0,0,1,.385,1.649l-2.426,2.911a1.069,1.069,0,0,1-.775.381c-.053,0-.381.012-.963.012" transform="translate(504.173 379.863)" fill="#263338"/>
        <path id="Path_163" data-name="Path 163" d="M844.464,559.264l-40.035,25.115s-28.427-5.3-52.178-13.524v-.017c-17.092-5.907-31.775-13.34-31.775-21.4,0-12.253,13.3-14.2,28.647-12.106,2.87.368,5.8.9,8.739,1.527,24.361,5.245,57.11-5.059,57.11-5.059Z" transform="translate(505.71 374.848)" fill="#0d0d24"/>
      </g>
    </g>
    <g id="Group_147" data-name="Group 147" transform="translate(1226.387 908.648)">
      <g id="Group_146" data-name="Group 146" clip-path="url(#clip-path-29)">
        <path id="Path_164" data-name="Path 164" d="M816.223,531.57h0l-.005,0-.005,0h0l-.005,0-.008,0c-.729.226-17.048,5.245-33.35,5.245h-.209c7.054,9.223,19.39,21.308,38.351,27.019l18.888-11.849Z" transform="translate(-676.823 -535.366)" fill="#0a0a1c"/>
      </g>
    </g>
    <g id="Group_149" data-name="Group 149" transform="translate(0.202)">
      <g id="Group_148" data-name="Group 148" clip-path="url(#clip-path)">
        <path id="Path_166" data-name="Path 166" d="M752.25,569.679c-17.092-5.907-31.774-13.339-31.774-21.4,0-12.254,13.3-14.2,28.647-12.106.606.717,14,16.724,3.127,33.5" transform="translate(505.711 376.004)" fill="#fff"/>
        <path id="Path_167" data-name="Path 167" d="M739.847,536.952c-6.715,0-11.684,1.294-14.6,3.837a9.892,9.892,0,0,0-3.275,7.934c0,4.361,5.277,11.374,30.266,20.117,8.952-14.753-1.4-28.907-3.238-31.227a70.339,70.339,0,0,0-9.155-.66m12.842,34.23-.346-.058c-21.56-7.451-32.49-14.988-32.49-22.4a12.053,12.053,0,0,1,4-9.534c4.7-4.106,13.4-5.328,25.85-3.622a1.051,1.051,0,0,1,.667.364c.6.7,14.452,17.419,3.212,34.766a1.068,1.068,0,0,1-.892.485" transform="translate(505.274 375.564)" fill="#263338"/>
        <path id="Path_168" data-name="Path 168" d="M750.328,555.531l-.107,0a1.838,1.838,0,0,1-1.733-1.941c.439-7.672-4.778-14.512-4.833-14.58a1.84,1.84,0,0,1,2.906-2.257c.248.322,6.12,7.968,5.6,17.044a1.839,1.839,0,0,1-1.833,1.736" transform="translate(521.718 376.422)" fill="#fff"/>
        <path id="Path_169" data-name="Path 169" d="M745.546,537.54l-.477.163a.779.779,0,0,0-.136,1.093c.037.048,5.515,7.18,5.05,15.286a.78.78,0,0,0,.734.822l.046,1.062V554.9a.779.779,0,0,0,.775-.734c.5-8.7-5.137-16.025-5.377-16.333a.778.778,0,0,0-.614-.3m5.217,19.487-.085,0a2.916,2.916,0,0,1-2.08-.969,2.868,2.868,0,0,1-.732-2.1c.417-7.272-4.56-13.8-4.61-13.861a2.9,2.9,0,0,1,4.576-3.568c.262.334,6.368,8.273,5.825,17.759a2.9,2.9,0,0,1-2.894,2.735" transform="translate(521.282 375.986)" fill="#263338"/>
        <path id="Path_170" data-name="Path 170" d="M754.253,556.415l-.158-.007a1.84,1.84,0,0,1-1.677-1.99c.662-7.728-4.024-14.985-4.073-15.058a1.84,1.84,0,0,1,3.076-2.021c.221.335,5.437,8.368,4.664,17.392a1.84,1.84,0,0,1-1.832,1.683" transform="translate(525.071 376.752)" fill="#fff"/>
        <path id="Path_171" data-name="Path 171" d="M750.325,538.007l-.434.131a.779.779,0,0,0-.22,1.076c.209.325,4.923,7.781,4.242,15.732a.77.77,0,0,0,.179.565.781.781,0,0,0,.533.276l.066,1.064v-1.062a.78.78,0,0,0,.773-.712c.744-8.675-4.278-16.393-4.49-16.719a.78.78,0,0,0-.649-.351m4.366,19.9-.284-.014a2.9,2.9,0,0,1-2.608-3.135c.621-7.238-3.721-14.1-3.907-14.392a2.9,2.9,0,0,1,4.85-3.176c.233.347,5.645,8.664,4.836,18.066a2.913,2.913,0,0,1-2.887,2.652" transform="translate(524.633 376.316)" fill="#263338"/>
        <path id="Path_172" data-name="Path 172" d="M759.606,556.415h-.032a1.842,1.842,0,0,1-1.808-1.872c.116-6.472-4.474-15.245-4.519-15.334a1.84,1.84,0,0,1,3.253-1.719c.208.393,5.078,9.694,4.947,17.118a1.842,1.842,0,0,1-1.84,1.808" transform="translate(528.574 376.752)" fill="#fff"/>
        <path id="Path_173" data-name="Path 173" d="M755.308,538.01l-.359.09a.78.78,0,0,0-.327,1.052c.043.083,4.763,9.1,4.642,15.848a.776.776,0,0,0,.763.792l.017,1.062v-1.062a.781.781,0,0,0,.778-.763c.128-7.161-4.62-16.22-4.824-16.6a.756.756,0,0,0-.46-.379Zm4.736,19.9h-.032a2.9,2.9,0,0,1-2.87-2.95c.094-5.154-3.141-12.443-4.4-14.818a2.907,2.907,0,0,1,1.21-3.92,2.9,2.9,0,0,1,3.92,1.21c.211.4,5.2,9.929,5.067,17.63a2.912,2.912,0,0,1-2.9,2.848" transform="translate(528.137 376.313)" fill="#263338"/>
        <path id="Path_174" data-name="Path 174" d="M764.578,556.671l-.5-.066a1.844,1.844,0,0,1-1.282-2.266c2.124-7.635-4.393-15.053-4.46-15.128a1.841,1.841,0,0,1,2.74-2.458c.323.364,7.934,8.976,5.267,18.57a1.842,1.842,0,0,1-1.77,1.348" transform="translate(531.972 376.495)" fill="#fff"/>
        <path id="Path_175" data-name="Path 175" d="M760.15,537.646l-.519.2a.78.78,0,0,0-.061,1.1c.063.07,6.971,7.922,4.691,16.118a.78.78,0,0,0,.543.958.816.816,0,0,0,.962-.545c2.508-9.029-4.729-17.23-5.037-17.574a.767.767,0,0,0-.579-.255m4.865,20.522a2.987,2.987,0,0,1-.778-.1,2.907,2.907,0,0,1-2.02-3.573c1.959-7.049-4.165-14.067-4.228-14.134a2.9,2.9,0,0,1,4.318-3.878c.344.381,8.319,9.427,5.5,19.564a2.91,2.91,0,0,1-2.793,2.123" transform="translate(531.536 376.058)" fill="#263338"/>
        <path id="Path_176" data-name="Path 176" d="M769.627,556.047a1.842,1.842,0,0,1-1.74-2.438c2.323-6.76-3.678-15.31-3.74-15.395a1.84,1.84,0,0,1,2.994-2.14c.295.41,7.17,10.167,4.225,18.731a1.841,1.841,0,0,1-1.74,1.241" transform="translate(536.139 375.906)" fill="#fff"/>
        <path id="Path_177" data-name="Path 177" d="M766.084,536.805l-.449.146a.78.78,0,0,0-.186,1.086c.264.371,6.368,9.124,3.881,16.355a.782.782,0,0,0,.482.991.807.807,0,0,0,.989-.485c2.763-8.034-3.8-17.375-4.085-17.769a.774.774,0,0,0-.5-.312Zm3.981,20.742a2.9,2.9,0,0,1-2.608-1.629,2.872,2.872,0,0,1-.134-2.216c2.131-6.2-3.546-14.355-3.6-14.437a2.9,2.9,0,0,1,.681-4.041,2.843,2.843,0,0,1,2.16-.5,2.88,2.88,0,0,1,1.883,1.173c.308.431,7.48,10.637,4.365,19.695a2.906,2.906,0,0,1-2.742,1.956" transform="translate(535.702 375.467)" fill="#263338"/>
        <path id="Path_178" data-name="Path 178" d="M778,553.469c6.55,1.791-2.213,14.649-10.811,9.555s4.261-11.345,10.811-9.555" transform="translate(536.501 388.44)" fill="#fff"/>
        <path id="Path_179" data-name="Path 179" d="M775.869,554.654c-3.949,0-8.881,2.019-9.888,4.4-.5,1.168.24,2.346,2.189,3.5a7.138,7.138,0,0,0,7.968-.4c2.509-1.721,3.747-4.293,3.493-5.786a1.776,1.776,0,0,0-1.471-1.435,8.78,8.78,0,0,0-2.291-.277m-4.058,11.058a9.228,9.228,0,0,1-4.724-1.335c-3.942-2.339-3.61-4.86-3.061-6.155,1.629-3.842,9.6-6.724,14.692-5.338a3.857,3.857,0,0,1,3.006,3.13c.427,2.533-1.416,5.85-4.385,7.888a9.735,9.735,0,0,1-5.529,1.809" transform="translate(536.063 388.001)" fill="#263338"/>
        <path id="Path_180" data-name="Path 180" d="M727.889,513.272c9.841,13.778,38.973,28.991,68,41.546A137.153,137.153,0,0,0,814.1,578.607c17.872,18.382,25.159,8.082,25.159,8.082s11.284-1.266,27.957-3.549c1.108,2.138,3.641,5.493,8.428,4.737,2.169-.342,6.342-3.442,11.049-7.536,42.079-6.334,99.2-16.9,114.626-29.324" transform="translate(510.917 360.433)" fill="#63eba8"/>
        <path id="Path_181" data-name="Path 181" d="M958.566,500.791a22.8,22.8,0,0,0-9.075-6.409,32.962,32.962,0,0,0-11.6-1.667c-2.957,0-6.256.182-10.03.453l-.245.046c-.037.017-39.938,12.654-67.919,29.581-13.853,8.385-30.938,17.007-44.547,23.523-6.806,3.258-12.745,5.992-16.98,7.91-2.118.958-3.811,1.714-4.972,2.23s-1.791.79-1.794.79l.424.974.3-1.02a48.363,48.363,0,0,0-12.013-1.636,25.466,25.466,0,0,0-9.672,1.675l.407.98-.082-1.059a4.573,4.573,0,0,0-2.252.912,5.874,5.874,0,0,0-2.119,4.981,18.739,18.739,0,0,0,1.468,6.577,1.061,1.061,0,0,0,1.981-.761,16.77,16.77,0,0,1-1.328-5.816c.022-2.027.688-2.819,1.273-3.284a2.711,2.711,0,0,1,.836-.424l.259-.061.056-.008h0l-.06-.6.046.6h.014l-.06-.6.046.6.327-.078a23.393,23.393,0,0,1,8.857-1.512,44.959,44.959,0,0,1,8,.78c1.054.194,1.917.39,2.513.535.3.073.529.133.684.175l.228.061a1.065,1.065,0,0,0,.718-.046c.022-.01,40.634-17.691,68.545-34.582,13.815-8.363,30.7-15.72,44.111-20.971,6.707-2.627,12.549-4.729,16.711-6.172,2.082-.723,3.743-1.282,4.884-1.658s1.753-.572,1.755-.572l-.32-1.011.075,1.057c3.753-.267,7.01-.446,9.878-.446a30.861,30.861,0,0,1,10.86,1.534,20.639,20.639,0,0,1,8.242,5.847,1.062,1.062,0,1,0,1.571-1.428" transform="translate(537.957 345.998)" fill="#263338"/>
        <path id="Path_182" data-name="Path 182" d="M896.235,526.4v.019a16.227,16.227,0,0,1-2.107,7c-2.085,3.907-6.211,8.807-14.573,12.9a1.062,1.062,0,1,0,.931,1.908c8.721-4.256,13.231-9.51,15.514-13.807a18.228,18.228,0,0,0,2.358-8V526.4a1.061,1.061,0,0,0-2.123,0" transform="translate(617.002 368.909)" fill="#263338"/>
        <path id="Path_183" data-name="Path 183" d="M776.236,497.038s.424.306,1.185.873c2.662,1.986,9.417,7.151,16.083,13.233,6.666,6.062,13.242,13.124,15.492,18.561a1.073,1.073,0,0,0,.563.567s.654.277,1.723.754c3.193,1.42,10.115,4.644,13.763,7.217a1.061,1.061,0,1,0,1.222-1.735,76.147,76.147,0,0,0-9.892-5.466c-3.309-1.586-5.975-2.72-5.983-2.725l-.417.977.98-.409c-1.466-3.488-4.284-7.257-7.689-11.029-10.207-11.289-25.758-22.515-25.787-22.539a1.061,1.061,0,0,0-1.243,1.719" transform="translate(544.559 347.684)" fill="#263338"/>
        <path id="Path_184" data-name="Path 184" d="M796.481,506.252a34.839,34.839,0,0,1,1.8,10.651,25.376,25.376,0,0,1-.841,6.594,1.061,1.061,0,0,0,2.049.55,27.5,27.5,0,0,0,.914-7.144,37,37,0,0,0-1.9-11.3,1.061,1.061,0,1,0-2.019.654" transform="translate(559.048 354.528)" fill="#263338"/>
        <path id="Path_185" data-name="Path 185" d="M847.116,542.659a80.538,80.538,0,0,0,10.377-1.278,1.061,1.061,0,0,0-.408-2.082,78.456,78.456,0,0,1-10.1,1.243,1.061,1.061,0,1,0,.136,2.118" transform="translate(593.848 378.696)" fill="#263338"/>
        <path id="Path_186" data-name="Path 186" d="M795.968,536.926c25.24,4.822,52.89,8.511,79.543,9.132a1.062,1.062,0,1,0,.049-2.123c-26.492-.616-54.039-4.288-79.194-9.095a1.061,1.061,0,0,0-.4,2.085" transform="translate(558.118 375.565)" fill="#263338"/>
        <path id="Path_187" data-name="Path 187" d="M850.921,364.452,821.309,375.5,795.4,518.505l16.656,60.148h48.736l8.635-17.184s-.616-109.251.618-113.547,19.123-69.354,19.123-69.354Z" transform="translate(558.324 255.927)" fill="#fff"/>
        <path id="Path_188" data-name="Path 188" d="M850.921,364.452,821.309,375.5,795.4,518.505l16.656,60.148h48.736l8.635-17.184s-.616-109.251.618-113.547,19.123-69.354,19.123-69.354Z" transform="translate(558.324 255.927)" fill="none" stroke="#263338" stroke-linecap="round" stroke-linejoin="round" stroke-width="1"/>
        <path id="Path_189" data-name="Path 189" d="M820.346,476.255s-.89,14.026-1.335,28.9m9.247-11.163a3.387,3.387,0,1,1-3.384-3.236A3.311,3.311,0,0,1,828.258,493.994Zm4.511-42.423a3.387,3.387,0,1,1-3.384-3.236A3.313,3.313,0,0,1,832.769,451.571Zm2.632-37.03a3.387,3.387,0,1,1-3.384-3.236A3.313,3.313,0,0,1,835.4,414.541Zm-8.271-12.585s-4.513,33.8-6.016,66.152" transform="translate(574.905 282.264)" fill="none" stroke="#263338" stroke-linecap="round" stroke-linejoin="round" stroke-width="1"/>
        <path id="Path_190" data-name="Path 190" d="M858.117,366.567s-11.236,38.659-19.349,68.075-4.3,139.957-4.3,139.957,20.524,1.9,29.591,6.169,13.364,14.707,28.636,19.926a80.237,80.237,0,0,0,30.068,3.794s-11.454-56.458-12.409-67.844,5.251-135.688,1.433-139.957-53.675-30.121-53.675-30.121" transform="translate(585.131 257.413)" fill="#06061e"/>
        <path id="Path_191" data-name="Path 191" d="M858.117,366.567s-11.236,38.659-19.349,68.075-4.3,139.957-4.3,139.957,20.524,1.9,29.591,6.169,13.364,14.707,28.636,19.926a80.237,80.237,0,0,0,30.068,3.794s-11.454-56.458-12.409-67.844,5.251-135.688,1.433-139.957S858.117,366.567,858.117,366.567Z" transform="translate(585.131 257.413)" fill="none" stroke="#263338" stroke-linecap="round" stroke-linejoin="round" stroke-width="1"/>
        <path id="Path_192" data-name="Path 192" d="M841.368,483.084s3.107-3.241,13.671-2.592m-11.185,7.127a72.7,72.7,0,0,1,33.582.551m7.573,2.611a52.524,52.524,0,0,1,8.559,4.613" transform="translate(590.604 337.353)" fill="none" stroke="#263338" stroke-linecap="round" stroke-linejoin="round" stroke-width="1"/>
        <path id="Path_193" data-name="Path 193" d="M856.693,364.332s-63.01,37.337-64.441,39.715-34.807,108.394-34.807,108.394l72.952,2.853s18.261-127.446,26.3-150.962" transform="translate(531.672 255.843)" fill="#06061e"/>
        <path id="Path_194" data-name="Path 194" d="M856.693,364.332s-63.01,37.337-64.441,39.715-34.807,108.394-34.807,108.394l72.952,2.853S848.659,387.848,856.693,364.332Z" transform="translate(531.672 255.843)" fill="none" stroke="#263338" stroke-linecap="round" stroke-linejoin="round" stroke-width="1"/>
      </g>
    </g>
    <g id="Group_151" data-name="Group 151" transform="translate(0.202)">
      <g id="Group_150" data-name="Group 150" clip-path="url(#clip-path)">
        <path id="Path_195" data-name="Path 195" d="M777.083,480.57l11.247-58.858m1.7-8.892,1.35-7.068" transform="translate(545.462 284.929)" fill="none" stroke="#263338" stroke-linecap="round" stroke-linejoin="round" stroke-width="1"/>
      </g>
    </g>
    <g id="Group_153" data-name="Group 153" transform="translate(0.202)">
      <g id="Group_152" data-name="Group 152" clip-path="url(#clip-path)">
        <path id="Path_196" data-name="Path 196" d="M821.022,368.37l-13.749,46.455,26.961-17.3,32.223,20.988s11.815-39.824,10.741-46.282-6.445-13.454-6.445-13.454Z" transform="translate(566.662 251.942)" fill="#fff"/>
        <path id="Path_197" data-name="Path 197" d="M821.022,368.37l-13.749,46.455,26.961-17.3,32.223,20.988s11.815-39.824,10.741-46.282-6.445-13.454-6.445-13.454Z" transform="translate(566.662 251.942)" fill="none" stroke="#263338" stroke-linecap="round" stroke-linejoin="round" stroke-width="1"/>
        <path id="Path_198" data-name="Path 198" d="M830.051,300.332s-17.851,26.9-17.851,32.344-2.548,14.9-4.007,17.446-13.843,7.631-13.112,12.717,5.462,9.813,5.462,9.813,3.643,36.341,9.109,35.614,17.119.363,17.119.363,16.392,62.145,17.851,59.964,34.969-54.512,34.969-54.512,2.916-22.532,4.373-25.076,23.678-19.623,27.685-29.8,2.914-37.432-3.278-46.879-34.972-22.9-49.543-21.8-26.59,4.359-28.776,9.81" transform="translate(558.079 203.968)" fill="#c4c4c4"/>
        <path id="Path_199" data-name="Path 199" d="M830.051,300.332s-17.851,26.9-17.851,32.344-2.548,14.9-4.007,17.446-13.843,7.631-13.112,12.717,5.462,9.813,5.462,9.813,3.643,36.341,9.109,35.614,17.119.363,17.119.363,16.392,62.145,17.851,59.964,34.969-54.512,34.969-54.512,2.916-22.532,4.373-25.076,23.678-19.623,27.685-29.8,2.914-37.432-3.278-46.879-34.972-22.9-49.543-21.8S832.237,294.881,830.051,300.332Z" transform="translate(558.079 203.968)" fill="none" stroke="#263338" stroke-linecap="round" stroke-linejoin="round" stroke-width="1"/>
        <path id="Path_200" data-name="Path 200" d="M844.481,290.521c-14.614,1.095-26.67,4.378-28.863,9.849,0,0-2.557,5.837,5.845,5.837s28.863-.73,28.863,8.024-14.614,12.4-14.249,16.781,9.5,14.956,9.5,14.956-3.655,10.213.73,11.672,4.749-4.376,10.23-2.918,10.595,14.956,8.038,19.332-10.23,10.215-10.23,10.215a138.831,138.831,0,0,0,14.934,6.2,5.8,5.8,0,0,1,.41-1.095c1.462-2.553,23.748-19.7,27.767-29.911s2.923-37.573-3.289-47.056-35.073-22.982-49.686-21.887" transform="translate(572.265 203.967)" fill="#06061e"/>
        <path id="Path_201" data-name="Path 201" d="M844.481,290.521c-14.614,1.095-26.67,4.378-28.863,9.849,0,0-2.557,5.837,5.845,5.837s28.863-.73,28.863,8.024-14.614,12.4-14.249,16.781,9.5,14.956,9.5,14.956-3.655,10.213.73,11.672,4.749-4.376,10.23-2.918,10.595,14.956,8.038,19.332-10.23,10.215-10.23,10.215a138.831,138.831,0,0,0,14.934,6.2,5.8,5.8,0,0,1,.41-1.095c1.462-2.553,23.748-19.7,27.767-29.911s2.923-37.573-3.289-47.056S859.095,289.426,844.481,290.521Z" transform="translate(572.265 203.967)" fill="none" stroke="#263338" stroke-linecap="round" stroke-linejoin="round" stroke-width="1"/>
        <path id="Path_202" data-name="Path 202" d="M803.594,340.632a19.692,19.692,0,0,0,14.964-4.535s4.988,9.977-3.175,13.15-11.79-8.615-11.79-8.615" transform="translate(564.079 236.016)" fill="#263338"/>
        <path id="Path_203" data-name="Path 203" d="M812.614,326.189c-.848,2.873-2.543,4.906-3.789,4.54s-1.568-2.994-.722-5.869,2.545-4.906,3.789-4.54,1.569,2.994.722,5.869" transform="translate(566.913 224.907)" fill="#263338"/>
        <path id="Path_204" data-name="Path 204" d="M808.707,315.861s6.525-7.343,11.1,3.108" transform="translate(567.669 220.045)" fill="none" stroke="#263338" stroke-linecap="round" stroke-linejoin="round" stroke-width="2"/>
        <path id="Path_205" data-name="Path 205" d="M821.806,327.546l38.181,9.744M807.8,326.407l-5.083-2.61m18.044,6.76c-2.033,6.615-6.583,11.049-10.161,9.9s-4.833-7.437-2.8-14.054,6.583-11.049,10.161-9.9S822.793,323.942,820.761,330.557Z" transform="translate(563.463 222.13)" fill="none" stroke="#263338" stroke-linecap="round" stroke-linejoin="round" stroke-width="1"/>
        <path id="Path_206" data-name="Path 206" d="M803.566,365.3s16.239-3.946,17.715-3.946,24.726-9.771,24.726-9.771l-22.144,22.548-2.952-8.455Z" transform="translate(564.059 246.89)" fill="#263338"/>
        <path id="Path_207" data-name="Path 207" d="M803.566,365.3s16.239-3.946,17.715-3.946,24.726-9.771,24.726-9.771l-22.144,22.548-2.952-8.455Z" transform="translate(564.059 246.89)" fill="none" stroke="#263338" stroke-linecap="round" stroke-linejoin="round" stroke-width="1"/>
        <path id="Path_208" data-name="Path 208" d="M882.93,384.2s8.159,0,13.919,16.168,36,118.4,33.117,124.583-36,7.132-40.8.477-9.6-19.972-9.6-19.972l-5.759-65.621" transform="translate(613.387 269.794)" fill="#06061e"/>
        <path id="Path_209" data-name="Path 209" d="M882.93,384.2s8.159,0,13.919,16.168,36,118.4,33.117,124.583-36,7.132-40.8.477-9.6-19.972-9.6-19.972l-5.759-65.621" transform="translate(613.387 269.794)" fill="none" stroke="#263338" stroke-linecap="round" stroke-linejoin="round" stroke-width="1"/>
        <path id="Path_210" data-name="Path 210" d="M890.577,456.657l-8.671-8.133s-.482-30.623-1.927-32.536-20.231-9.57-21.676-9.57-10.116,8.613-10.116,8.613-2.409,11-2.89,13.875,0,15.311,0,15.311.482,7.177,3.372,7.655a45.044,45.044,0,0,0,6.262.478s3.372,6.7,6.744,9.092a33.712,33.712,0,0,0,7.706,3.828l13.488,11.962Z" transform="translate(593.213 285.396)" fill="#c4c4c4"/>
        <path id="Path_211" data-name="Path 211" d="M890.577,456.657l-8.671-8.133s-.482-30.623-1.927-32.536-20.231-9.57-21.676-9.57-10.116,8.613-10.116,8.613-2.409,11-2.89,13.875,0,15.311,0,15.311.482,7.177,3.372,7.655a45.044,45.044,0,0,0,6.262.478s3.372,6.7,6.744,9.092a33.712,33.712,0,0,0,7.706,3.828l13.488,11.962Z" transform="translate(593.213 285.396)" fill="none" stroke="#263338" stroke-linecap="round" stroke-linejoin="round" stroke-width="1"/>
      </g>
    </g>
    <g id="Group_155" data-name="Group 155" transform="translate(0.202)">
      <g id="Group_154" data-name="Group 154" clip-path="url(#clip-path)">
        <path id="Path_212" data-name="Path 212" d="M854.97,449.137l1.513-4.186-4.558-1.426m-6.717-9.978L864.4,438.3m-17.993-16.158,20.633,6.891m-18.9-17.616,23.7,6.45" transform="translate(593.301 288.907)" fill="none" stroke="#263338" stroke-linecap="round" stroke-linejoin="round" stroke-width="1"/>
      </g>
    </g>
    <g id="Group_157" data-name="Group 157" transform="translate(0.202)">
      <g id="Group_156" data-name="Group 156" clip-path="url(#clip-path)">
        <path id="Path_213" data-name="Path 213" d="M936.733,468.323,879.9,435.577,859.369,467.85s42.024,40.813,47.278,45.083,16.716,5.7,21.969,4.271,14.8-14.236,14.8-26.1-6.686-22.781-6.686-22.781" transform="translate(603.245 305.873)" fill="#06061e"/>
        <path id="Path_214" data-name="Path 214" d="M936.733,468.323,879.9,435.577,859.369,467.85s42.024,40.813,47.278,45.083,16.716,5.7,21.969,4.271,14.8-14.236,14.8-26.1S936.733,468.323,936.733,468.323Z" transform="translate(603.245 305.873)" fill="none" stroke="#263338" stroke-linecap="round" stroke-linejoin="round" stroke-width="1"/>
        <path id="Path_215" data-name="Path 215" d="M831.4,511.085l42.913-22.17L817.1,486Z" transform="translate(573.561 341.28)" fill="#ededed"/>
        <path id="Path_216" data-name="Path 216" d="M831.4,511.085l42.913-22.17L817.1,486Z" transform="translate(573.561 341.28)" fill="none" stroke="#263338" stroke-linecap="round" stroke-linejoin="round" stroke-width="1"/>
        <path id="Path_217" data-name="Path 217" d="M738.943,443.278l23.812,89.845,124.164,7.961-25.513-95.532Z" transform="translate(518.679 311.281)" fill="#ccc"/>
        <path id="Path_218" data-name="Path 218" d="M738.943,443.278l23.812,89.845,124.164,7.961-25.513-95.532Z" transform="translate(518.679 311.281)" fill="none" stroke="#263338" stroke-linecap="round" stroke-linejoin="round" stroke-width="1"/>
        <path id="Path_219" data-name="Path 219" d="M794.947,474.581c0,5.006-4.95,9.063-11.058,9.063s-11.058-4.056-11.058-9.063,4.952-9.064,11.058-9.064,11.058,4.058,11.058,9.064" transform="translate(542.477 326.898)" fill="#fff"/>
        <path id="Path_220" data-name="Path 220" d="M794.947,474.581c0,5.006-4.95,9.063-11.058,9.063s-11.058-4.056-11.058-9.063,4.952-9.064,11.058-9.064S794.947,469.575,794.947,474.581Z" transform="translate(542.477 326.898)" fill="none" stroke="#263338" stroke-linecap="round" stroke-linejoin="round" stroke-width="1"/>
        <path id="Path_221" data-name="Path 221" d="M739.19,457.734s-.369,6.491,1.849,8.017,15.906,4.582,17.016,1.146.369-6.491-2.589-7.255-12.207-4.2-16.275-1.908" transform="translate(518.837 320.888)" fill="#c4c4c4"/>
        <path id="Path_222" data-name="Path 222" d="M739.19,457.734s-.369,6.491,1.849,8.017,15.906,4.582,17.016,1.146.369-6.491-2.589-7.255S743.259,455.443,739.19,457.734Z" transform="translate(518.837 320.888)" fill="none" stroke="#263338" stroke-linecap="round" stroke-linejoin="round" stroke-width="1"/>
        <path id="Path_223" data-name="Path 223" d="M740.23,461.744s-.373,8.058,1.861,9.592,11.163,1.918,13.024-.383,2.233-8.058,2.233-8.058-13.024,1.535-17.118-1.151" transform="translate(519.566 324.248)" fill="#c4c4c4"/>
        <path id="Path_224" data-name="Path 224" d="M740.23,461.744s-.373,8.058,1.861,9.592,11.163,1.918,13.024-.383,2.233-8.058,2.233-8.058S744.324,464.43,740.23,461.744Z" transform="translate(519.566 324.248)" fill="none" stroke="#263338" stroke-linecap="round" stroke-linejoin="round" stroke-width="1"/>
        <path id="Path_225" data-name="Path 225" d="M741.258,467.126s1.876,5.912,3.376,7.093,10.125,1.183,11.25-1.181-1.5-6.307-1.5-6.307-9.75,1.183-13.126.395" transform="translate(520.305 327.75)" fill="#c4c4c4"/>
        <path id="Path_226" data-name="Path 226" d="M741.258,467.126s1.876,5.912,3.376,7.093,10.125,1.183,11.25-1.181-1.5-6.307-1.5-6.307S744.634,467.914,741.258,467.126Z" transform="translate(520.305 327.75)" fill="none" stroke="#263338" stroke-linecap="round" stroke-linejoin="round" stroke-width="1"/>
        <path id="Path_227" data-name="Path 227" d="M743.129,471.264a5.275,5.275,0,0,0,3.779,4.829c3.777,1.207,9.068,1.61,9.446-.805s-1.889-5.231-1.889-5.231-7.178,2.012-11.335,1.207" transform="translate(521.619 330.086)" fill="#c4c4c4"/>
        <path id="Path_228" data-name="Path 228" d="M743.129,471.264a5.275,5.275,0,0,0,3.779,4.829c3.777,1.207,9.068,1.61,9.446-.805s-1.889-5.231-1.889-5.231S747.286,472.069,743.129,471.264Z" transform="translate(521.619 330.086)" fill="none" stroke="#263338" stroke-linecap="round" stroke-linejoin="round" stroke-width="1"/>
      </g>
    </g>
  </g>
</svg>
